<?xml version="1.0" encoding="utf-8" standalone="no"?>
<!DOCTYPE svg PUBLIC "-//W3C//DTD SVG 1.1//EN"
  "http://www.w3.org/Graphics/SVG/1.1/DTD/svg11.dtd">
<svg xmlns:xlink="http://www.w3.org/1999/xlink" width="432pt" height="288pt" viewBox="0 0 432 288" xmlns="http://www.w3.org/2000/svg" version="1.1">
 <metadata>
  <rdf:RDF xmlns:dc="http://purl.org/dc/elements/1.1/" xmlns:cc="http://creativecommons.org/ns#" xmlns:rdf="http://www.w3.org/1999/02/22-rdf-syntax-ns#">
   <cc:Work>
    <dc:type rdf:resource="http://purl.org/dc/dcmitype/StillImage"/>
    <dc:date>2022-01-21T05:00:40.088085</dc:date>
    <dc:format>image/svg+xml</dc:format>
    <dc:creator>
     <cc:Agent>
      <dc:title>Matplotlib v3.5.1, https://matplotlib.org/</dc:title>
     </cc:Agent>
    </dc:creator>
   </cc:Work>
  </rdf:RDF>
 </metadata>
 <defs>
  <style type="text/css">*{stroke-linejoin: round; stroke-linecap: butt}</style>
 </defs>
 <g id="figure_1">
  <g id="patch_1">
   <path d="M 0 288 
L 432 288 
L 432 0 
L 0 0 
L 0 288 
z
" style="fill: none"/>
  </g>
  <g id="axes_1">
   <g id="patch_2">
    <path d="M 54 252 
L 388.8 252 
L 388.8 34.56 
L 54 34.56 
z
" style="fill: #ffffff"/>
   </g>
   <g id="matplotlib.axis_1">
    <g id="xtick_1">
     <g id="line2d_1">
      <defs>
       <path id="m993883fa6c" d="M 0 0 
L 0 3.5 
" style="stroke: #000000; stroke-width: 0.8"/>
      </defs>
      <g>
       <use xlink:href="#m993883fa6c" x="69.218182" y="252" style="stroke: #000000; stroke-width: 0.8"/>
      </g>
     </g>
     <g id="text_1">
      <!-- 40 -->
      <g transform="translate(62.855682 266.598437)scale(0.1 -0.1)">
       <defs>
        <path id="DejaVuSans-34" d="M 2419 4116 
L 825 1625 
L 2419 1625 
L 2419 4116 
z
M 2253 4666 
L 3047 4666 
L 3047 1625 
L 3713 1625 
L 3713 1100 
L 3047 1100 
L 3047 0 
L 2419 0 
L 2419 1100 
L 313 1100 
L 313 1709 
L 2253 4666 
z
" transform="scale(0.015625)"/>
        <path id="DejaVuSans-30" d="M 2034 4250 
Q 1547 4250 1301 3770 
Q 1056 3291 1056 2328 
Q 1056 1369 1301 889 
Q 1547 409 2034 409 
Q 2525 409 2770 889 
Q 3016 1369 3016 2328 
Q 3016 3291 2770 3770 
Q 2525 4250 2034 4250 
z
M 2034 4750 
Q 2819 4750 3233 4129 
Q 3647 3509 3647 2328 
Q 3647 1150 3233 529 
Q 2819 -91 2034 -91 
Q 1250 -91 836 529 
Q 422 1150 422 2328 
Q 422 3509 836 4129 
Q 1250 4750 2034 4750 
z
" transform="scale(0.015625)"/>
       </defs>
       <use xlink:href="#DejaVuSans-34"/>
       <use xlink:href="#DejaVuSans-30" x="63.623047"/>
      </g>
     </g>
    </g>
    <g id="xtick_2">
     <g id="line2d_2">
      <g>
       <use xlink:href="#m993883fa6c" x="107.263636" y="252" style="stroke: #000000; stroke-width: 0.8"/>
      </g>
     </g>
     <g id="text_2">
      <!-- 50 -->
      <g transform="translate(100.901136 266.598437)scale(0.1 -0.1)">
       <defs>
        <path id="DejaVuSans-35" d="M 691 4666 
L 3169 4666 
L 3169 4134 
L 1269 4134 
L 1269 2991 
Q 1406 3038 1543 3061 
Q 1681 3084 1819 3084 
Q 2600 3084 3056 2656 
Q 3513 2228 3513 1497 
Q 3513 744 3044 326 
Q 2575 -91 1722 -91 
Q 1428 -91 1123 -41 
Q 819 9 494 109 
L 494 744 
Q 775 591 1075 516 
Q 1375 441 1709 441 
Q 2250 441 2565 725 
Q 2881 1009 2881 1497 
Q 2881 1984 2565 2268 
Q 2250 2553 1709 2553 
Q 1456 2553 1204 2497 
Q 953 2441 691 2322 
L 691 4666 
z
" transform="scale(0.015625)"/>
       </defs>
       <use xlink:href="#DejaVuSans-35"/>
       <use xlink:href="#DejaVuSans-30" x="63.623047"/>
      </g>
     </g>
    </g>
    <g id="xtick_3">
     <g id="line2d_3">
      <g>
       <use xlink:href="#m993883fa6c" x="145.309091" y="252" style="stroke: #000000; stroke-width: 0.8"/>
      </g>
     </g>
     <g id="text_3">
      <!-- 60 -->
      <g transform="translate(138.946591 266.598437)scale(0.1 -0.1)">
       <defs>
        <path id="DejaVuSans-36" d="M 2113 2584 
Q 1688 2584 1439 2293 
Q 1191 2003 1191 1497 
Q 1191 994 1439 701 
Q 1688 409 2113 409 
Q 2538 409 2786 701 
Q 3034 994 3034 1497 
Q 3034 2003 2786 2293 
Q 2538 2584 2113 2584 
z
M 3366 4563 
L 3366 3988 
Q 3128 4100 2886 4159 
Q 2644 4219 2406 4219 
Q 1781 4219 1451 3797 
Q 1122 3375 1075 2522 
Q 1259 2794 1537 2939 
Q 1816 3084 2150 3084 
Q 2853 3084 3261 2657 
Q 3669 2231 3669 1497 
Q 3669 778 3244 343 
Q 2819 -91 2113 -91 
Q 1303 -91 875 529 
Q 447 1150 447 2328 
Q 447 3434 972 4092 
Q 1497 4750 2381 4750 
Q 2619 4750 2861 4703 
Q 3103 4656 3366 4563 
z
" transform="scale(0.015625)"/>
       </defs>
       <use xlink:href="#DejaVuSans-36"/>
       <use xlink:href="#DejaVuSans-30" x="63.623047"/>
      </g>
     </g>
    </g>
    <g id="xtick_4">
     <g id="line2d_4">
      <g>
       <use xlink:href="#m993883fa6c" x="183.354545" y="252" style="stroke: #000000; stroke-width: 0.8"/>
      </g>
     </g>
     <g id="text_4">
      <!-- 70 -->
      <g transform="translate(176.992045 266.598437)scale(0.1 -0.1)">
       <defs>
        <path id="DejaVuSans-37" d="M 525 4666 
L 3525 4666 
L 3525 4397 
L 1831 0 
L 1172 0 
L 2766 4134 
L 525 4134 
L 525 4666 
z
" transform="scale(0.015625)"/>
       </defs>
       <use xlink:href="#DejaVuSans-37"/>
       <use xlink:href="#DejaVuSans-30" x="63.623047"/>
      </g>
     </g>
    </g>
    <g id="xtick_5">
     <g id="line2d_5">
      <g>
       <use xlink:href="#m993883fa6c" x="221.4" y="252" style="stroke: #000000; stroke-width: 0.8"/>
      </g>
     </g>
     <g id="text_5">
      <!-- 80 -->
      <g transform="translate(215.0375 266.598437)scale(0.1 -0.1)">
       <defs>
        <path id="DejaVuSans-38" d="M 2034 2216 
Q 1584 2216 1326 1975 
Q 1069 1734 1069 1313 
Q 1069 891 1326 650 
Q 1584 409 2034 409 
Q 2484 409 2743 651 
Q 3003 894 3003 1313 
Q 3003 1734 2745 1975 
Q 2488 2216 2034 2216 
z
M 1403 2484 
Q 997 2584 770 2862 
Q 544 3141 544 3541 
Q 544 4100 942 4425 
Q 1341 4750 2034 4750 
Q 2731 4750 3128 4425 
Q 3525 4100 3525 3541 
Q 3525 3141 3298 2862 
Q 3072 2584 2669 2484 
Q 3125 2378 3379 2068 
Q 3634 1759 3634 1313 
Q 3634 634 3220 271 
Q 2806 -91 2034 -91 
Q 1263 -91 848 271 
Q 434 634 434 1313 
Q 434 1759 690 2068 
Q 947 2378 1403 2484 
z
M 1172 3481 
Q 1172 3119 1398 2916 
Q 1625 2713 2034 2713 
Q 2441 2713 2670 2916 
Q 2900 3119 2900 3481 
Q 2900 3844 2670 4047 
Q 2441 4250 2034 4250 
Q 1625 4250 1398 4047 
Q 1172 3844 1172 3481 
z
" transform="scale(0.015625)"/>
       </defs>
       <use xlink:href="#DejaVuSans-38"/>
       <use xlink:href="#DejaVuSans-30" x="63.623047"/>
      </g>
     </g>
    </g>
    <g id="xtick_6">
     <g id="line2d_6">
      <g>
       <use xlink:href="#m993883fa6c" x="259.445455" y="252" style="stroke: #000000; stroke-width: 0.8"/>
      </g>
     </g>
     <g id="text_6">
      <!-- 90 -->
      <g transform="translate(253.082955 266.598437)scale(0.1 -0.1)">
       <defs>
        <path id="DejaVuSans-39" d="M 703 97 
L 703 672 
Q 941 559 1184 500 
Q 1428 441 1663 441 
Q 2288 441 2617 861 
Q 2947 1281 2994 2138 
Q 2813 1869 2534 1725 
Q 2256 1581 1919 1581 
Q 1219 1581 811 2004 
Q 403 2428 403 3163 
Q 403 3881 828 4315 
Q 1253 4750 1959 4750 
Q 2769 4750 3195 4129 
Q 3622 3509 3622 2328 
Q 3622 1225 3098 567 
Q 2575 -91 1691 -91 
Q 1453 -91 1209 -44 
Q 966 3 703 97 
z
M 1959 2075 
Q 2384 2075 2632 2365 
Q 2881 2656 2881 3163 
Q 2881 3666 2632 3958 
Q 2384 4250 1959 4250 
Q 1534 4250 1286 3958 
Q 1038 3666 1038 3163 
Q 1038 2656 1286 2365 
Q 1534 2075 1959 2075 
z
" transform="scale(0.015625)"/>
       </defs>
       <use xlink:href="#DejaVuSans-39"/>
       <use xlink:href="#DejaVuSans-30" x="63.623047"/>
      </g>
     </g>
    </g>
    <g id="xtick_7">
     <g id="line2d_7">
      <g>
       <use xlink:href="#m993883fa6c" x="297.490909" y="252" style="stroke: #000000; stroke-width: 0.8"/>
      </g>
     </g>
     <g id="text_7">
      <!-- 100 -->
      <g transform="translate(287.947159 266.598437)scale(0.1 -0.1)">
       <defs>
        <path id="DejaVuSans-31" d="M 794 531 
L 1825 531 
L 1825 4091 
L 703 3866 
L 703 4441 
L 1819 4666 
L 2450 4666 
L 2450 531 
L 3481 531 
L 3481 0 
L 794 0 
L 794 531 
z
" transform="scale(0.015625)"/>
       </defs>
       <use xlink:href="#DejaVuSans-31"/>
       <use xlink:href="#DejaVuSans-30" x="63.623047"/>
       <use xlink:href="#DejaVuSans-30" x="127.246094"/>
      </g>
     </g>
    </g>
    <g id="xtick_8">
     <g id="line2d_8">
      <g>
       <use xlink:href="#m993883fa6c" x="335.536364" y="252" style="stroke: #000000; stroke-width: 0.8"/>
      </g>
     </g>
     <g id="text_8">
      <!-- 110 -->
      <g transform="translate(325.992614 266.598437)scale(0.1 -0.1)">
       <use xlink:href="#DejaVuSans-31"/>
       <use xlink:href="#DejaVuSans-31" x="63.623047"/>
       <use xlink:href="#DejaVuSans-30" x="127.246094"/>
      </g>
     </g>
    </g>
    <g id="xtick_9">
     <g id="line2d_9">
      <g>
       <use xlink:href="#m993883fa6c" x="373.581818" y="252" style="stroke: #000000; stroke-width: 0.8"/>
      </g>
     </g>
     <g id="text_9">
      <!-- 120 -->
      <g transform="translate(364.038068 266.598437)scale(0.1 -0.1)">
       <defs>
        <path id="DejaVuSans-32" d="M 1228 531 
L 3431 531 
L 3431 0 
L 469 0 
L 469 531 
Q 828 903 1448 1529 
Q 2069 2156 2228 2338 
Q 2531 2678 2651 2914 
Q 2772 3150 2772 3378 
Q 2772 3750 2511 3984 
Q 2250 4219 1831 4219 
Q 1534 4219 1204 4116 
Q 875 4013 500 3803 
L 500 4441 
Q 881 4594 1212 4672 
Q 1544 4750 1819 4750 
Q 2544 4750 2975 4387 
Q 3406 4025 3406 3419 
Q 3406 3131 3298 2873 
Q 3191 2616 2906 2266 
Q 2828 2175 2409 1742 
Q 1991 1309 1228 531 
z
" transform="scale(0.015625)"/>
       </defs>
       <use xlink:href="#DejaVuSans-31"/>
       <use xlink:href="#DejaVuSans-32" x="63.623047"/>
       <use xlink:href="#DejaVuSans-30" x="127.246094"/>
      </g>
     </g>
    </g>
   </g>
   <g id="matplotlib.axis_2">
    <g id="ytick_1">
     <g id="line2d_10">
      <defs>
       <path id="mcbf252beb5" d="M 0 0 
L -3.5 0 
" style="stroke: #000000; stroke-width: 0.8"/>
      </defs>
      <g>
       <use xlink:href="#mcbf252beb5" x="54" y="242.116364" style="stroke: #000000; stroke-width: 0.8"/>
      </g>
     </g>
     <g id="text_10">
      <!-- 0.0 -->
      <g transform="translate(31.096875 245.915582)scale(0.1 -0.1)">
       <defs>
        <path id="DejaVuSans-2e" d="M 684 794 
L 1344 794 
L 1344 0 
L 684 0 
L 684 794 
z
" transform="scale(0.015625)"/>
       </defs>
       <use xlink:href="#DejaVuSans-30"/>
       <use xlink:href="#DejaVuSans-2e" x="63.623047"/>
       <use xlink:href="#DejaVuSans-30" x="95.410156"/>
      </g>
     </g>
    </g>
    <g id="ytick_2">
     <g id="line2d_11">
      <g>
       <use xlink:href="#mcbf252beb5" x="54" y="211.983326" style="stroke: #000000; stroke-width: 0.8"/>
      </g>
     </g>
     <g id="text_11">
      <!-- 0.1 -->
      <g transform="translate(31.096875 215.782545)scale(0.1 -0.1)">
       <use xlink:href="#DejaVuSans-30"/>
       <use xlink:href="#DejaVuSans-2e" x="63.623047"/>
       <use xlink:href="#DejaVuSans-31" x="95.410156"/>
      </g>
     </g>
    </g>
    <g id="ytick_3">
     <g id="line2d_12">
      <g>
       <use xlink:href="#mcbf252beb5" x="54" y="181.850288" style="stroke: #000000; stroke-width: 0.8"/>
      </g>
     </g>
     <g id="text_12">
      <!-- 0.2 -->
      <g transform="translate(31.096875 185.649507)scale(0.1 -0.1)">
       <use xlink:href="#DejaVuSans-30"/>
       <use xlink:href="#DejaVuSans-2e" x="63.623047"/>
       <use xlink:href="#DejaVuSans-32" x="95.410156"/>
      </g>
     </g>
    </g>
    <g id="ytick_4">
     <g id="line2d_13">
      <g>
       <use xlink:href="#mcbf252beb5" x="54" y="151.717251" style="stroke: #000000; stroke-width: 0.8"/>
      </g>
     </g>
     <g id="text_13">
      <!-- 0.3 -->
      <g transform="translate(31.096875 155.516469)scale(0.1 -0.1)">
       <defs>
        <path id="DejaVuSans-33" d="M 2597 2516 
Q 3050 2419 3304 2112 
Q 3559 1806 3559 1356 
Q 3559 666 3084 287 
Q 2609 -91 1734 -91 
Q 1441 -91 1130 -33 
Q 819 25 488 141 
L 488 750 
Q 750 597 1062 519 
Q 1375 441 1716 441 
Q 2309 441 2620 675 
Q 2931 909 2931 1356 
Q 2931 1769 2642 2001 
Q 2353 2234 1838 2234 
L 1294 2234 
L 1294 2753 
L 1863 2753 
Q 2328 2753 2575 2939 
Q 2822 3125 2822 3475 
Q 2822 3834 2567 4026 
Q 2313 4219 1838 4219 
Q 1578 4219 1281 4162 
Q 984 4106 628 3988 
L 628 4550 
Q 988 4650 1302 4700 
Q 1616 4750 1894 4750 
Q 2613 4750 3031 4423 
Q 3450 4097 3450 3541 
Q 3450 3153 3228 2886 
Q 3006 2619 2597 2516 
z
" transform="scale(0.015625)"/>
       </defs>
       <use xlink:href="#DejaVuSans-30"/>
       <use xlink:href="#DejaVuSans-2e" x="63.623047"/>
       <use xlink:href="#DejaVuSans-33" x="95.410156"/>
      </g>
     </g>
    </g>
    <g id="ytick_5">
     <g id="line2d_14">
      <g>
       <use xlink:href="#mcbf252beb5" x="54" y="121.584213" style="stroke: #000000; stroke-width: 0.8"/>
      </g>
     </g>
     <g id="text_14">
      <!-- 0.4 -->
      <g transform="translate(31.096875 125.383432)scale(0.1 -0.1)">
       <use xlink:href="#DejaVuSans-30"/>
       <use xlink:href="#DejaVuSans-2e" x="63.623047"/>
       <use xlink:href="#DejaVuSans-34" x="95.410156"/>
      </g>
     </g>
    </g>
    <g id="ytick_6">
     <g id="line2d_15">
      <g>
       <use xlink:href="#mcbf252beb5" x="54" y="91.451175" style="stroke: #000000; stroke-width: 0.8"/>
      </g>
     </g>
     <g id="text_15">
      <!-- 0.5 -->
      <g transform="translate(31.096875 95.250394)scale(0.1 -0.1)">
       <use xlink:href="#DejaVuSans-30"/>
       <use xlink:href="#DejaVuSans-2e" x="63.623047"/>
       <use xlink:href="#DejaVuSans-35" x="95.410156"/>
      </g>
     </g>
    </g>
    <g id="ytick_7">
     <g id="line2d_16">
      <g>
       <use xlink:href="#mcbf252beb5" x="54" y="61.318137" style="stroke: #000000; stroke-width: 0.8"/>
      </g>
     </g>
     <g id="text_16">
      <!-- 0.6 -->
      <g transform="translate(31.096875 65.117356)scale(0.1 -0.1)">
       <use xlink:href="#DejaVuSans-30"/>
       <use xlink:href="#DejaVuSans-2e" x="63.623047"/>
       <use xlink:href="#DejaVuSans-36" x="95.410156"/>
      </g>
     </g>
    </g>
   </g>
   <g id="line2d_17">
    <defs>
     <path id="mc0ab72ae52" d="M 0 0.25 
C 0.066301 0.25 0.129895 0.223658 0.176777 0.176777 
C 0.223658 0.129895 0.25 0.066301 0.25 0 
C 0.25 -0.066301 0.223658 -0.129895 0.176777 -0.176777 
C 0.129895 -0.223658 0.066301 -0.25 0 -0.25 
C -0.066301 -0.25 -0.129895 -0.223658 -0.176777 -0.176777 
C -0.223658 -0.129895 -0.25 -0.066301 -0.25 0 
C -0.25 0.066301 -0.223658 0.129895 -0.176777 0.176777 
C -0.129895 0.223658 -0.066301 0.25 0 0.25 
z
" style="stroke: #000000"/>
    </defs>
    <g clip-path="url(#pdcc0d45c18)">
     <use xlink:href="#mc0ab72ae52" x="172.892045" y="219.215255" style="stroke: #000000"/>
     <use xlink:href="#mc0ab72ae52" x="172.892045" y="218.009933" style="stroke: #000000"/>
     <use xlink:href="#mc0ab72ae52" x="172.892045" y="215.59929" style="stroke: #000000"/>
     <use xlink:href="#mc0ab72ae52" x="172.892045" y="214.393969" style="stroke: #000000"/>
     <use xlink:href="#mc0ab72ae52" x="172.892045" y="138.458714" style="stroke: #000000"/>
     <use xlink:href="#mc0ab72ae52" x="172.892045" y="137.253392" style="stroke: #000000"/>
     <use xlink:href="#mc0ab72ae52" x="172.892045" y="136.048071" style="stroke: #000000"/>
    </g>
   </g>
   <g id="line2d_18">
    <g clip-path="url(#pdcc0d45c18)">
     <use xlink:href="#mc0ab72ae52" x="123.813409" y="181.850288" style="stroke: #000000"/>
     <use xlink:href="#mc0ab72ae52" x="123.813409" y="180.644967" style="stroke: #000000"/>
     <use xlink:href="#mc0ab72ae52" x="123.813409" y="179.439645" style="stroke: #000000"/>
     <use xlink:href="#mc0ab72ae52" x="123.813409" y="178.234324" style="stroke: #000000"/>
    </g>
   </g>
   <g id="line2d_19">
    <g clip-path="url(#pdcc0d45c18)">
     <use xlink:href="#mc0ab72ae52" x="126.286364" y="189.082217" style="stroke: #000000"/>
     <use xlink:href="#mc0ab72ae52" x="126.286364" y="187.876896" style="stroke: #000000"/>
     <use xlink:href="#mc0ab72ae52" x="126.286364" y="172.207716" style="stroke: #000000"/>
     <use xlink:href="#mc0ab72ae52" x="126.286364" y="171.002395" style="stroke: #000000"/>
    </g>
   </g>
   <g id="line2d_20">
    <g clip-path="url(#pdcc0d45c18)">
     <use xlink:href="#mc0ab72ae52" x="297.490909" y="232.473792" style="stroke: #000000"/>
     <use xlink:href="#mc0ab72ae52" x="297.490909" y="230.063149" style="stroke: #000000"/>
     <use xlink:href="#mc0ab72ae52" x="297.490909" y="227.652506" style="stroke: #000000"/>
     <use xlink:href="#mc0ab72ae52" x="297.490909" y="225.241863" style="stroke: #000000"/>
     <use xlink:href="#mc0ab72ae52" x="297.490909" y="213.18865" style="stroke: #000000"/>
     <use xlink:href="#mc0ab72ae52" x="297.490909" y="201.135432" style="stroke: #000000"/>
     <use xlink:href="#mc0ab72ae52" x="297.490909" y="198.724789" style="stroke: #000000"/>
     <use xlink:href="#mc0ab72ae52" x="297.490909" y="191.49286" style="stroke: #000000"/>
     <use xlink:href="#mc0ab72ae52" x="297.490909" y="186.671574" style="stroke: #000000"/>
     <use xlink:href="#mc0ab72ae52" x="297.490909" y="181.850288" style="stroke: #000000"/>
     <use xlink:href="#mc0ab72ae52" x="297.490909" y="177.029002" style="stroke: #000000"/>
     <use xlink:href="#mc0ab72ae52" x="297.490909" y="174.618359" style="stroke: #000000"/>
     <use xlink:href="#mc0ab72ae52" x="297.490909" y="172.207716" style="stroke: #000000"/>
     <use xlink:href="#mc0ab72ae52" x="297.490909" y="169.797073" style="stroke: #000000"/>
     <use xlink:href="#mc0ab72ae52" x="297.490909" y="167.38643" style="stroke: #000000"/>
     <use xlink:href="#mc0ab72ae52" x="297.490909" y="162.565144" style="stroke: #000000"/>
     <use xlink:href="#mc0ab72ae52" x="297.490909" y="157.743858" style="stroke: #000000"/>
     <use xlink:href="#mc0ab72ae52" x="297.490909" y="152.922572" style="stroke: #000000"/>
     <use xlink:href="#mc0ab72ae52" x="297.490909" y="150.511929" style="stroke: #000000"/>
     <use xlink:href="#mc0ab72ae52" x="297.490909" y="148.101286" style="stroke: #000000"/>
     <use xlink:href="#mc0ab72ae52" x="297.490909" y="145.690643" style="stroke: #000000"/>
     <use xlink:href="#mc0ab72ae52" x="297.490909" y="143.28" style="stroke: #000000"/>
     <use xlink:href="#mc0ab72ae52" x="297.490909" y="140.869357" style="stroke: #000000"/>
     <use xlink:href="#mc0ab72ae52" x="297.490909" y="138.458714" style="stroke: #000000"/>
     <use xlink:href="#mc0ab72ae52" x="297.490909" y="136.048071" style="stroke: #000000"/>
     <use xlink:href="#mc0ab72ae52" x="297.490909" y="133.637428" style="stroke: #000000"/>
     <use xlink:href="#mc0ab72ae52" x="297.490909" y="131.226785" style="stroke: #000000"/>
     <use xlink:href="#mc0ab72ae52" x="297.490909" y="128.816142" style="stroke: #000000"/>
     <use xlink:href="#mc0ab72ae52" x="297.490909" y="126.405499" style="stroke: #000000"/>
     <use xlink:href="#mc0ab72ae52" x="297.490909" y="123.994856" style="stroke: #000000"/>
     <use xlink:href="#mc0ab72ae52" x="297.490909" y="121.584213" style="stroke: #000000"/>
     <use xlink:href="#mc0ab72ae52" x="297.490909" y="119.17357" style="stroke: #000000"/>
     <use xlink:href="#mc0ab72ae52" x="297.490909" y="116.762927" style="stroke: #000000"/>
     <use xlink:href="#mc0ab72ae52" x="297.490909" y="114.352284" style="stroke: #000000"/>
     <use xlink:href="#mc0ab72ae52" x="297.490909" y="111.941641" style="stroke: #000000"/>
     <use xlink:href="#mc0ab72ae52" x="297.490909" y="109.530998" style="stroke: #000000"/>
     <use xlink:href="#mc0ab72ae52" x="297.490909" y="107.120355" style="stroke: #000000"/>
     <use xlink:href="#mc0ab72ae52" x="297.490909" y="104.709712" style="stroke: #000000"/>
     <use xlink:href="#mc0ab72ae52" x="297.490909" y="102.299069" style="stroke: #000000"/>
     <use xlink:href="#mc0ab72ae52" x="297.490909" y="97.477783" style="stroke: #000000"/>
     <use xlink:href="#mc0ab72ae52" x="297.490909" y="92.656497" style="stroke: #000000"/>
     <use xlink:href="#mc0ab72ae52" x="297.490909" y="87.835211" style="stroke: #000000"/>
     <use xlink:href="#mc0ab72ae52" x="297.490909" y="85.424568" style="stroke: #000000"/>
     <use xlink:href="#mc0ab72ae52" x="297.490909" y="83.013925" style="stroke: #000000"/>
     <use xlink:href="#mc0ab72ae52" x="297.490909" y="80.603282" style="stroke: #000000"/>
     <use xlink:href="#mc0ab72ae52" x="297.490909" y="78.192639" style="stroke: #000000"/>
     <use xlink:href="#mc0ab72ae52" x="297.490909" y="75.781996" style="stroke: #000000"/>
    </g>
   </g>
   <g id="line2d_21">
    <g clip-path="url(#pdcc0d45c18)">
     <use xlink:href="#mc0ab72ae52" x="145.309091" y="208.367361" style="stroke: #000000"/>
     <use xlink:href="#mc0ab72ae52" x="145.309091" y="207.16204" style="stroke: #000000"/>
     <use xlink:href="#mc0ab72ae52" x="145.309091" y="150.511929" style="stroke: #000000"/>
    </g>
   </g>
   <g id="line2d_22">
    <g clip-path="url(#pdcc0d45c18)">
     <use xlink:href="#mc0ab72ae52" x="124.764545" y="184.260931" style="stroke: #000000"/>
     <use xlink:href="#mc0ab72ae52" x="124.764545" y="183.05561" style="stroke: #000000"/>
     <use xlink:href="#mc0ab72ae52" x="124.764545" y="177.029002" style="stroke: #000000"/>
     <use xlink:href="#mc0ab72ae52" x="124.764545" y="175.823681" style="stroke: #000000"/>
    </g>
   </g>
   <g id="line2d_23">
    <g clip-path="url(#pdcc0d45c18)">
     <use xlink:href="#mc0ab72ae52" x="171.940909" y="216.804612" style="stroke: #000000"/>
     <use xlink:href="#mc0ab72ae52" x="171.940909" y="215.59929" style="stroke: #000000"/>
     <use xlink:href="#mc0ab72ae52" x="171.940909" y="138.458714" style="stroke: #000000"/>
     <use xlink:href="#mc0ab72ae52" x="171.940909" y="137.253392" style="stroke: #000000"/>
    </g>
   </g>
   <g id="line2d_24">
    <g clip-path="url(#pdcc0d45c18)">
     <use xlink:href="#mc0ab72ae52" x="122.862273" y="181.850288" style="stroke: #000000"/>
     <use xlink:href="#mc0ab72ae52" x="122.862273" y="180.644967" style="stroke: #000000"/>
     <use xlink:href="#mc0ab72ae52" x="122.862273" y="179.439645" style="stroke: #000000"/>
    </g>
   </g>
   <g id="line2d_25">
    <g clip-path="url(#pdcc0d45c18)">
     <use xlink:href="#mc0ab72ae52" x="179.55" y="225.241863" style="stroke: #000000"/>
     <use xlink:href="#mc0ab72ae52" x="179.55" y="204.751397" style="stroke: #000000"/>
     <use xlink:href="#mc0ab72ae52" x="179.55" y="203.546075" style="stroke: #000000"/>
     <use xlink:href="#mc0ab72ae52" x="179.55" y="143.28" style="stroke: #000000"/>
     <use xlink:href="#mc0ab72ae52" x="179.55" y="142.074678" style="stroke: #000000"/>
     <use xlink:href="#mc0ab72ae52" x="179.55" y="132.432106" style="stroke: #000000"/>
     <use xlink:href="#mc0ab72ae52" x="179.55" y="131.226785" style="stroke: #000000"/>
    </g>
   </g>
   <g id="line2d_26">
    <g clip-path="url(#pdcc0d45c18)">
     <use xlink:href="#mc0ab72ae52" x="123.432955" y="181.850288" style="stroke: #000000"/>
     <use xlink:href="#mc0ab72ae52" x="123.432955" y="180.644967" style="stroke: #000000"/>
     <use xlink:href="#mc0ab72ae52" x="123.432955" y="179.439645" style="stroke: #000000"/>
    </g>
   </g>
   <g id="line2d_27">
    <g clip-path="url(#pdcc0d45c18)">
     <use xlink:href="#mc0ab72ae52" x="173.843182" y="220.420576" style="stroke: #000000"/>
     <use xlink:href="#mc0ab72ae52" x="173.843182" y="213.18865" style="stroke: #000000"/>
     <use xlink:href="#mc0ab72ae52" x="173.843182" y="211.983329" style="stroke: #000000"/>
     <use xlink:href="#mc0ab72ae52" x="173.843182" y="139.664035" style="stroke: #000000"/>
     <use xlink:href="#mc0ab72ae52" x="173.843182" y="138.458714" style="stroke: #000000"/>
     <use xlink:href="#mc0ab72ae52" x="173.843182" y="136.048071" style="stroke: #000000"/>
     <use xlink:href="#mc0ab72ae52" x="173.843182" y="134.842749" style="stroke: #000000"/>
    </g>
   </g>
   <g id="line2d_28">
    <g clip-path="url(#pdcc0d45c18)">
     <use xlink:href="#mc0ab72ae52" x="183.354545" y="226.447184" style="stroke: #000000"/>
     <use xlink:href="#mc0ab72ae52" x="183.354545" y="225.241863" style="stroke: #000000"/>
     <use xlink:href="#mc0ab72ae52" x="183.354545" y="203.546075" style="stroke: #000000"/>
     <use xlink:href="#mc0ab72ae52" x="183.354545" y="202.340754" style="stroke: #000000"/>
     <use xlink:href="#mc0ab72ae52" x="183.354545" y="142.074678" style="stroke: #000000"/>
     <use xlink:href="#mc0ab72ae52" x="183.354545" y="140.869357" style="stroke: #000000"/>
     <use xlink:href="#mc0ab72ae52" x="183.354545" y="130.021463" style="stroke: #000000"/>
     <use xlink:href="#mc0ab72ae52" x="183.354545" y="128.816142" style="stroke: #000000"/>
    </g>
   </g>
   <g id="line2d_29">
    <g clip-path="url(#pdcc0d45c18)">
     <use xlink:href="#mc0ab72ae52" x="335.536364" y="218.009933" style="stroke: #000000"/>
     <use xlink:href="#mc0ab72ae52" x="335.536364" y="215.59929" style="stroke: #000000"/>
     <use xlink:href="#mc0ab72ae52" x="335.536364" y="174.618359" style="stroke: #000000"/>
     <use xlink:href="#mc0ab72ae52" x="335.536364" y="172.207716" style="stroke: #000000"/>
     <use xlink:href="#mc0ab72ae52" x="335.536364" y="97.477783" style="stroke: #000000"/>
     <use xlink:href="#mc0ab72ae52" x="335.536364" y="95.06714" style="stroke: #000000"/>
     <use xlink:href="#mc0ab72ae52" x="335.536364" y="63.72878" style="stroke: #000000"/>
    </g>
   </g>
   <g id="line2d_30">
    <g clip-path="url(#pdcc0d45c18)">
     <use xlink:href="#mc0ab72ae52" x="172.416477" y="216.804612" style="stroke: #000000"/>
     <use xlink:href="#mc0ab72ae52" x="172.416477" y="215.59929" style="stroke: #000000"/>
     <use xlink:href="#mc0ab72ae52" x="172.416477" y="138.458714" style="stroke: #000000"/>
     <use xlink:href="#mc0ab72ae52" x="172.416477" y="137.253392" style="stroke: #000000"/>
    </g>
   </g>
   <g id="line2d_31">
    <g clip-path="url(#pdcc0d45c18)">
     <use xlink:href="#mc0ab72ae52" x="175.745455" y="222.83122" style="stroke: #000000"/>
     <use xlink:href="#mc0ab72ae52" x="175.745455" y="221.625898" style="stroke: #000000"/>
     <use xlink:href="#mc0ab72ae52" x="175.745455" y="209.572683" style="stroke: #000000"/>
     <use xlink:href="#mc0ab72ae52" x="175.745455" y="208.367361" style="stroke: #000000"/>
     <use xlink:href="#mc0ab72ae52" x="175.745455" y="140.869357" style="stroke: #000000"/>
     <use xlink:href="#mc0ab72ae52" x="175.745455" y="139.664035" style="stroke: #000000"/>
     <use xlink:href="#mc0ab72ae52" x="175.745455" y="133.637428" style="stroke: #000000"/>
     <use xlink:href="#mc0ab72ae52" x="175.745455" y="132.432106" style="stroke: #000000"/>
    </g>
   </g>
   <g id="line2d_32">
    <g clip-path="url(#pdcc0d45c18)">
     <use xlink:href="#mc0ab72ae52" x="168.136364" y="216.804612" style="stroke: #000000"/>
     <use xlink:href="#mc0ab72ae52" x="168.136364" y="215.59929" style="stroke: #000000"/>
     <use xlink:href="#mc0ab72ae52" x="168.136364" y="139.664035" style="stroke: #000000"/>
     <use xlink:href="#mc0ab72ae52" x="168.136364" y="138.458714" style="stroke: #000000"/>
    </g>
   </g>
   <g id="line2d_33">
    <g clip-path="url(#pdcc0d45c18)">
     <use xlink:href="#mc0ab72ae52" x="125.145" y="186.671574" style="stroke: #000000"/>
     <use xlink:href="#mc0ab72ae52" x="125.145" y="185.466253" style="stroke: #000000"/>
     <use xlink:href="#mc0ab72ae52" x="125.145" y="184.260931" style="stroke: #000000"/>
     <use xlink:href="#mc0ab72ae52" x="125.145" y="174.618359" style="stroke: #000000"/>
     <use xlink:href="#mc0ab72ae52" x="125.145" y="173.413038" style="stroke: #000000"/>
    </g>
   </g>
   <g id="line2d_34">
    <g clip-path="url(#pdcc0d45c18)">
     <use xlink:href="#mc0ab72ae52" x="170.038636" y="216.804612" style="stroke: #000000"/>
     <use xlink:href="#mc0ab72ae52" x="170.038636" y="215.59929" style="stroke: #000000"/>
     <use xlink:href="#mc0ab72ae52" x="170.038636" y="138.458714" style="stroke: #000000"/>
     <use xlink:href="#mc0ab72ae52" x="170.038636" y="137.253392" style="stroke: #000000"/>
    </g>
   </g>
   <g id="line2d_35">
    <g clip-path="url(#pdcc0d45c18)">
     <use xlink:href="#mc0ab72ae52" x="122.481818" y="180.644967" style="stroke: #000000"/>
    </g>
   </g>
   <g id="line2d_36">
    <g clip-path="url(#pdcc0d45c18)">
     <use xlink:href="#mc0ab72ae52" x="124.003636" y="181.850288" style="stroke: #000000"/>
     <use xlink:href="#mc0ab72ae52" x="124.003636" y="180.644967" style="stroke: #000000"/>
     <use xlink:href="#mc0ab72ae52" x="124.003636" y="179.439645" style="stroke: #000000"/>
    </g>
   </g>
   <g id="line2d_37">
    <g clip-path="url(#pdcc0d45c18)">
     <use xlink:href="#mc0ab72ae52" x="164.331818" y="215.59929" style="stroke: #000000"/>
     <use xlink:href="#mc0ab72ae52" x="164.331818" y="214.393969" style="stroke: #000000"/>
     <use xlink:href="#mc0ab72ae52" x="164.331818" y="140.869357" style="stroke: #000000"/>
    </g>
   </g>
   <g id="line2d_38">
    <g clip-path="url(#pdcc0d45c18)">
     <use xlink:href="#mc0ab72ae52" x="123.623182" y="181.850288" style="stroke: #000000"/>
     <use xlink:href="#mc0ab72ae52" x="123.623182" y="180.644967" style="stroke: #000000"/>
     <use xlink:href="#mc0ab72ae52" x="123.623182" y="179.439645" style="stroke: #000000"/>
     <use xlink:href="#mc0ab72ae52" x="123.623182" y="178.234324" style="stroke: #000000"/>
    </g>
   </g>
   <g id="line2d_39">
    <g clip-path="url(#pdcc0d45c18)">
     <use xlink:href="#mc0ab72ae52" x="107.263636" y="185.466253" style="stroke: #000000"/>
    </g>
   </g>
   <g id="line2d_40">
    <g clip-path="url(#pdcc0d45c18)">
     <use xlink:href="#mc0ab72ae52" x="259.445455" y="239.705721" style="stroke: #000000"/>
     <use xlink:href="#mc0ab72ae52" x="259.445455" y="237.295078" style="stroke: #000000"/>
     <use xlink:href="#mc0ab72ae52" x="259.445455" y="234.884435" style="stroke: #000000"/>
     <use xlink:href="#mc0ab72ae52" x="259.445455" y="232.473792" style="stroke: #000000"/>
     <use xlink:href="#mc0ab72ae52" x="259.445455" y="227.652506" style="stroke: #000000"/>
     <use xlink:href="#mc0ab72ae52" x="259.445455" y="225.241863" style="stroke: #000000"/>
     <use xlink:href="#mc0ab72ae52" x="259.445455" y="222.83122" style="stroke: #000000"/>
     <use xlink:href="#mc0ab72ae52" x="259.445455" y="218.009933" style="stroke: #000000"/>
     <use xlink:href="#mc0ab72ae52" x="259.445455" y="215.59929" style="stroke: #000000"/>
     <use xlink:href="#mc0ab72ae52" x="259.445455" y="213.18865" style="stroke: #000000"/>
     <use xlink:href="#mc0ab72ae52" x="259.445455" y="210.778004" style="stroke: #000000"/>
     <use xlink:href="#mc0ab72ae52" x="259.445455" y="208.367361" style="stroke: #000000"/>
     <use xlink:href="#mc0ab72ae52" x="259.445455" y="201.135432" style="stroke: #000000"/>
     <use xlink:href="#mc0ab72ae52" x="259.445455" y="193.903503" style="stroke: #000000"/>
     <use xlink:href="#mc0ab72ae52" x="259.445455" y="189.082217" style="stroke: #000000"/>
     <use xlink:href="#mc0ab72ae52" x="259.445455" y="184.260931" style="stroke: #000000"/>
     <use xlink:href="#mc0ab72ae52" x="259.445455" y="181.850288" style="stroke: #000000"/>
     <use xlink:href="#mc0ab72ae52" x="259.445455" y="179.439645" style="stroke: #000000"/>
     <use xlink:href="#mc0ab72ae52" x="259.445455" y="174.618359" style="stroke: #000000"/>
     <use xlink:href="#mc0ab72ae52" x="259.445455" y="172.207716" style="stroke: #000000"/>
     <use xlink:href="#mc0ab72ae52" x="259.445455" y="169.797073" style="stroke: #000000"/>
     <use xlink:href="#mc0ab72ae52" x="259.445455" y="167.38643" style="stroke: #000000"/>
     <use xlink:href="#mc0ab72ae52" x="259.445455" y="164.975787" style="stroke: #000000"/>
     <use xlink:href="#mc0ab72ae52" x="259.445455" y="162.565144" style="stroke: #000000"/>
     <use xlink:href="#mc0ab72ae52" x="259.445455" y="155.333215" style="stroke: #000000"/>
     <use xlink:href="#mc0ab72ae52" x="259.445455" y="148.101286" style="stroke: #000000"/>
     <use xlink:href="#mc0ab72ae52" x="259.445455" y="143.28" style="stroke: #000000"/>
     <use xlink:href="#mc0ab72ae52" x="259.445455" y="140.869357" style="stroke: #000000"/>
     <use xlink:href="#mc0ab72ae52" x="259.445455" y="138.458714" style="stroke: #000000"/>
     <use xlink:href="#mc0ab72ae52" x="259.445455" y="126.405499" style="stroke: #000000"/>
     <use xlink:href="#mc0ab72ae52" x="259.445455" y="123.994856" style="stroke: #000000"/>
     <use xlink:href="#mc0ab72ae52" x="259.445455" y="121.584213" style="stroke: #000000"/>
     <use xlink:href="#mc0ab72ae52" x="259.445455" y="119.17357" style="stroke: #000000"/>
     <use xlink:href="#mc0ab72ae52" x="259.445455" y="116.762927" style="stroke: #000000"/>
     <use xlink:href="#mc0ab72ae52" x="259.445455" y="114.352284" style="stroke: #000000"/>
     <use xlink:href="#mc0ab72ae52" x="259.445455" y="111.941641" style="stroke: #000000"/>
     <use xlink:href="#mc0ab72ae52" x="259.445455" y="109.530998" style="stroke: #000000"/>
     <use xlink:href="#mc0ab72ae52" x="259.445455" y="107.120355" style="stroke: #000000"/>
     <use xlink:href="#mc0ab72ae52" x="259.445455" y="104.709712" style="stroke: #000000"/>
     <use xlink:href="#mc0ab72ae52" x="259.445455" y="102.299069" style="stroke: #000000"/>
     <use xlink:href="#mc0ab72ae52" x="259.445455" y="99.888426" style="stroke: #000000"/>
     <use xlink:href="#mc0ab72ae52" x="259.445455" y="97.477783" style="stroke: #000000"/>
     <use xlink:href="#mc0ab72ae52" x="259.445455" y="95.06714" style="stroke: #000000"/>
     <use xlink:href="#mc0ab72ae52" x="259.445455" y="92.656497" style="stroke: #000000"/>
    </g>
   </g>
   <g id="line2d_41">
    <g clip-path="url(#pdcc0d45c18)">
     <use xlink:href="#mc0ab72ae52" x="221.4" y="242.116364" style="stroke: #000000"/>
     <use xlink:href="#mc0ab72ae52" x="221.4" y="239.705721" style="stroke: #000000"/>
     <use xlink:href="#mc0ab72ae52" x="221.4" y="237.295078" style="stroke: #000000"/>
     <use xlink:href="#mc0ab72ae52" x="221.4" y="234.884435" style="stroke: #000000"/>
     <use xlink:href="#mc0ab72ae52" x="221.4" y="232.473792" style="stroke: #000000"/>
     <use xlink:href="#mc0ab72ae52" x="221.4" y="230.063149" style="stroke: #000000"/>
     <use xlink:href="#mc0ab72ae52" x="221.4" y="227.652506" style="stroke: #000000"/>
     <use xlink:href="#mc0ab72ae52" x="221.4" y="225.241863" style="stroke: #000000"/>
     <use xlink:href="#mc0ab72ae52" x="221.4" y="222.83122" style="stroke: #000000"/>
     <use xlink:href="#mc0ab72ae52" x="221.4" y="220.420576" style="stroke: #000000"/>
     <use xlink:href="#mc0ab72ae52" x="221.4" y="215.59929" style="stroke: #000000"/>
     <use xlink:href="#mc0ab72ae52" x="221.4" y="210.778004" style="stroke: #000000"/>
     <use xlink:href="#mc0ab72ae52" x="221.4" y="208.367361" style="stroke: #000000"/>
     <use xlink:href="#mc0ab72ae52" x="221.4" y="203.546075" style="stroke: #000000"/>
     <use xlink:href="#mc0ab72ae52" x="221.4" y="201.135432" style="stroke: #000000"/>
     <use xlink:href="#mc0ab72ae52" x="221.4" y="198.724789" style="stroke: #000000"/>
     <use xlink:href="#mc0ab72ae52" x="221.4" y="193.903503" style="stroke: #000000"/>
     <use xlink:href="#mc0ab72ae52" x="221.4" y="189.082217" style="stroke: #000000"/>
     <use xlink:href="#mc0ab72ae52" x="221.4" y="186.671574" style="stroke: #000000"/>
     <use xlink:href="#mc0ab72ae52" x="221.4" y="184.260931" style="stroke: #000000"/>
     <use xlink:href="#mc0ab72ae52" x="221.4" y="181.850288" style="stroke: #000000"/>
     <use xlink:href="#mc0ab72ae52" x="221.4" y="179.439645" style="stroke: #000000"/>
     <use xlink:href="#mc0ab72ae52" x="221.4" y="177.029002" style="stroke: #000000"/>
     <use xlink:href="#mc0ab72ae52" x="221.4" y="169.797073" style="stroke: #000000"/>
     <use xlink:href="#mc0ab72ae52" x="221.4" y="167.38643" style="stroke: #000000"/>
     <use xlink:href="#mc0ab72ae52" x="221.4" y="164.975787" style="stroke: #000000"/>
     <use xlink:href="#mc0ab72ae52" x="221.4" y="162.565144" style="stroke: #000000"/>
     <use xlink:href="#mc0ab72ae52" x="221.4" y="160.154501" style="stroke: #000000"/>
     <use xlink:href="#mc0ab72ae52" x="221.4" y="157.743858" style="stroke: #000000"/>
     <use xlink:href="#mc0ab72ae52" x="221.4" y="155.333215" style="stroke: #000000"/>
     <use xlink:href="#mc0ab72ae52" x="221.4" y="152.922572" style="stroke: #000000"/>
     <use xlink:href="#mc0ab72ae52" x="221.4" y="150.511929" style="stroke: #000000"/>
     <use xlink:href="#mc0ab72ae52" x="221.4" y="148.101286" style="stroke: #000000"/>
     <use xlink:href="#mc0ab72ae52" x="221.4" y="145.690643" style="stroke: #000000"/>
     <use xlink:href="#mc0ab72ae52" x="221.4" y="140.869357" style="stroke: #000000"/>
     <use xlink:href="#mc0ab72ae52" x="221.4" y="138.458714" style="stroke: #000000"/>
     <use xlink:href="#mc0ab72ae52" x="221.4" y="136.048071" style="stroke: #000000"/>
     <use xlink:href="#mc0ab72ae52" x="221.4" y="133.637428" style="stroke: #000000"/>
     <use xlink:href="#mc0ab72ae52" x="221.4" y="131.226785" style="stroke: #000000"/>
     <use xlink:href="#mc0ab72ae52" x="221.4" y="126.405499" style="stroke: #000000"/>
     <use xlink:href="#mc0ab72ae52" x="221.4" y="123.994856" style="stroke: #000000"/>
     <use xlink:href="#mc0ab72ae52" x="221.4" y="121.584213" style="stroke: #000000"/>
     <use xlink:href="#mc0ab72ae52" x="221.4" y="119.17357" style="stroke: #000000"/>
     <use xlink:href="#mc0ab72ae52" x="221.4" y="116.762927" style="stroke: #000000"/>
     <use xlink:href="#mc0ab72ae52" x="221.4" y="114.352284" style="stroke: #000000"/>
     <use xlink:href="#mc0ab72ae52" x="221.4" y="111.941641" style="stroke: #000000"/>
     <use xlink:href="#mc0ab72ae52" x="221.4" y="109.530998" style="stroke: #000000"/>
    </g>
   </g>
   <g id="line2d_42">
    <g clip-path="url(#pdcc0d45c18)">
     <use xlink:href="#mc0ab72ae52" x="123.242727" y="180.644967" style="stroke: #000000"/>
     <use xlink:href="#mc0ab72ae52" x="123.242727" y="179.439645" style="stroke: #000000"/>
    </g>
   </g>
   <g id="line2d_43">
    <g clip-path="url(#pdcc0d45c18)">
     <use xlink:href="#mc0ab72ae52" x="124.384091" y="180.644967" style="stroke: #000000"/>
     <use xlink:href="#mc0ab72ae52" x="124.384091" y="179.439645" style="stroke: #000000"/>
    </g>
   </g>
   <g id="line2d_44">
    <g clip-path="url(#pdcc0d45c18)">
     <use xlink:href="#mc0ab72ae52" x="373.581818" y="205.956718" style="stroke: #000000"/>
     <use xlink:href="#mc0ab72ae52" x="373.581818" y="203.546075" style="stroke: #000000"/>
     <use xlink:href="#mc0ab72ae52" x="373.581818" y="189.082217" style="stroke: #000000"/>
     <use xlink:href="#mc0ab72ae52" x="373.581818" y="186.671574" style="stroke: #000000"/>
     <use xlink:href="#mc0ab72ae52" x="373.581818" y="75.781996" style="stroke: #000000"/>
     <use xlink:href="#mc0ab72ae52" x="373.581818" y="73.371353" style="stroke: #000000"/>
     <use xlink:href="#mc0ab72ae52" x="373.581818" y="46.854279" style="stroke: #000000"/>
     <use xlink:href="#mc0ab72ae52" x="373.581818" y="44.443636" style="stroke: #000000"/>
    </g>
   </g>
   <g id="line2d_45">
    <g clip-path="url(#pdcc0d45c18)">
     <use xlink:href="#mc0ab72ae52" x="69.218182" y="196.314146" style="stroke: #000000"/>
    </g>
   </g>
   <g id="line2d_46">
    <g clip-path="url(#pdcc0d45c18)">
     <use xlink:href="#mc0ab72ae52" x="128.188636" y="192.698182" style="stroke: #000000"/>
     <use xlink:href="#mc0ab72ae52" x="128.188636" y="191.49286" style="stroke: #000000"/>
     <use xlink:href="#mc0ab72ae52" x="128.188636" y="167.38643" style="stroke: #000000"/>
     <use xlink:href="#mc0ab72ae52" x="128.188636" y="166.181109" style="stroke: #000000"/>
    </g>
   </g>
   <g id="patch_3">
    <path d="M 54 252 
L 54 34.56 
" style="fill: none; stroke: #000000; stroke-width: 0.8; stroke-linejoin: miter; stroke-linecap: square"/>
   </g>
   <g id="patch_4">
    <path d="M 388.8 252 
L 388.8 34.56 
" style="fill: none; stroke: #000000; stroke-width: 0.8; stroke-linejoin: miter; stroke-linecap: square"/>
   </g>
   <g id="patch_5">
    <path d="M 54 252 
L 388.8 252 
" style="fill: none; stroke: #000000; stroke-width: 0.8; stroke-linejoin: miter; stroke-linecap: square"/>
   </g>
   <g id="patch_6">
    <path d="M 54 34.56 
L 388.8 34.56 
" style="fill: none; stroke: #000000; stroke-width: 0.8; stroke-linejoin: miter; stroke-linecap: square"/>
   </g>
  </g>
 </g>
 <defs>
  <clipPath id="pdcc0d45c18">
   <rect x="54" y="34.56" width="334.8" height="217.44"/>
  </clipPath>
 </defs>
</svg>
