<?xml version="1.0" encoding="utf-8" standalone="no"?>
<!DOCTYPE svg PUBLIC "-//W3C//DTD SVG 1.1//EN"
  "http://www.w3.org/Graphics/SVG/1.1/DTD/svg11.dtd">
<svg xmlns:xlink="http://www.w3.org/1999/xlink" width="1152pt" height="576pt" viewBox="0 0 1152 576" xmlns="http://www.w3.org/2000/svg" version="1.1">
 <metadata>
  <rdf:RDF xmlns:dc="http://purl.org/dc/elements/1.1/" xmlns:cc="http://creativecommons.org/ns#" xmlns:rdf="http://www.w3.org/1999/02/22-rdf-syntax-ns#">
   <cc:Work>
    <dc:type rdf:resource="http://purl.org/dc/dcmitype/StillImage"/>
    <dc:date>2022-01-26T07:03:25.233140</dc:date>
    <dc:format>image/svg+xml</dc:format>
    <dc:creator>
     <cc:Agent>
      <dc:title>Matplotlib v3.5.1, https://matplotlib.org/</dc:title>
     </cc:Agent>
    </dc:creator>
   </cc:Work>
  </rdf:RDF>
 </metadata>
 <defs>
  <style type="text/css">*{stroke-linejoin: round; stroke-linecap: butt}</style>
 </defs>
 <g id="figure_1">
  <g id="patch_1">
   <path d="M 0 576 
L 1152 576 
L 1152 0 
L 0 0 
L 0 576 
z
" style="fill: none"/>
  </g>
  <g id="axes_1">
   <g id="patch_2">
    <path d="M 144 504 
L 1036.8 504 
L 1036.8 69.12 
L 144 69.12 
z
" style="fill: #ffffff"/>
   </g>
   <g id="matplotlib.axis_1">
    <g id="xtick_1">
     <g id="line2d_1">
      <defs>
       <path id="m87ebee34e4" d="M 0 0 
L 0 3.5 
" style="stroke: #000000; stroke-width: 0.8"/>
      </defs>
      <g>
       <use xlink:href="#m87ebee34e4" x="184.581818" y="504" style="stroke: #000000; stroke-width: 0.8"/>
      </g>
     </g>
     <g id="text_1">
      <!-- 40 -->
      <g transform="translate(178.219318 518.598438)scale(0.1 -0.1)">
       <defs>
        <path id="DejaVuSans-34" d="M 2419 4116 
L 825 1625 
L 2419 1625 
L 2419 4116 
z
M 2253 4666 
L 3047 4666 
L 3047 1625 
L 3713 1625 
L 3713 1100 
L 3047 1100 
L 3047 0 
L 2419 0 
L 2419 1100 
L 313 1100 
L 313 1709 
L 2253 4666 
z
" transform="scale(0.015625)"/>
        <path id="DejaVuSans-30" d="M 2034 4250 
Q 1547 4250 1301 3770 
Q 1056 3291 1056 2328 
Q 1056 1369 1301 889 
Q 1547 409 2034 409 
Q 2525 409 2770 889 
Q 3016 1369 3016 2328 
Q 3016 3291 2770 3770 
Q 2525 4250 2034 4250 
z
M 2034 4750 
Q 2819 4750 3233 4129 
Q 3647 3509 3647 2328 
Q 3647 1150 3233 529 
Q 2819 -91 2034 -91 
Q 1250 -91 836 529 
Q 422 1150 422 2328 
Q 422 3509 836 4129 
Q 1250 4750 2034 4750 
z
" transform="scale(0.015625)"/>
       </defs>
       <use xlink:href="#DejaVuSans-34"/>
       <use xlink:href="#DejaVuSans-30" x="63.623047"/>
      </g>
     </g>
    </g>
    <g id="xtick_2">
     <g id="line2d_2">
      <g>
       <use xlink:href="#m87ebee34e4" x="286.036364" y="504" style="stroke: #000000; stroke-width: 0.8"/>
      </g>
     </g>
     <g id="text_2">
      <!-- 50 -->
      <g transform="translate(279.673864 518.598438)scale(0.1 -0.1)">
       <defs>
        <path id="DejaVuSans-35" d="M 691 4666 
L 3169 4666 
L 3169 4134 
L 1269 4134 
L 1269 2991 
Q 1406 3038 1543 3061 
Q 1681 3084 1819 3084 
Q 2600 3084 3056 2656 
Q 3513 2228 3513 1497 
Q 3513 744 3044 326 
Q 2575 -91 1722 -91 
Q 1428 -91 1123 -41 
Q 819 9 494 109 
L 494 744 
Q 775 591 1075 516 
Q 1375 441 1709 441 
Q 2250 441 2565 725 
Q 2881 1009 2881 1497 
Q 2881 1984 2565 2268 
Q 2250 2553 1709 2553 
Q 1456 2553 1204 2497 
Q 953 2441 691 2322 
L 691 4666 
z
" transform="scale(0.015625)"/>
       </defs>
       <use xlink:href="#DejaVuSans-35"/>
       <use xlink:href="#DejaVuSans-30" x="63.623047"/>
      </g>
     </g>
    </g>
    <g id="xtick_3">
     <g id="line2d_3">
      <g>
       <use xlink:href="#m87ebee34e4" x="387.490909" y="504" style="stroke: #000000; stroke-width: 0.8"/>
      </g>
     </g>
     <g id="text_3">
      <!-- 60 -->
      <g transform="translate(381.128409 518.598438)scale(0.1 -0.1)">
       <defs>
        <path id="DejaVuSans-36" d="M 2113 2584 
Q 1688 2584 1439 2293 
Q 1191 2003 1191 1497 
Q 1191 994 1439 701 
Q 1688 409 2113 409 
Q 2538 409 2786 701 
Q 3034 994 3034 1497 
Q 3034 2003 2786 2293 
Q 2538 2584 2113 2584 
z
M 3366 4563 
L 3366 3988 
Q 3128 4100 2886 4159 
Q 2644 4219 2406 4219 
Q 1781 4219 1451 3797 
Q 1122 3375 1075 2522 
Q 1259 2794 1537 2939 
Q 1816 3084 2150 3084 
Q 2853 3084 3261 2657 
Q 3669 2231 3669 1497 
Q 3669 778 3244 343 
Q 2819 -91 2113 -91 
Q 1303 -91 875 529 
Q 447 1150 447 2328 
Q 447 3434 972 4092 
Q 1497 4750 2381 4750 
Q 2619 4750 2861 4703 
Q 3103 4656 3366 4563 
z
" transform="scale(0.015625)"/>
       </defs>
       <use xlink:href="#DejaVuSans-36"/>
       <use xlink:href="#DejaVuSans-30" x="63.623047"/>
      </g>
     </g>
    </g>
    <g id="xtick_4">
     <g id="line2d_4">
      <g>
       <use xlink:href="#m87ebee34e4" x="488.945455" y="504" style="stroke: #000000; stroke-width: 0.8"/>
      </g>
     </g>
     <g id="text_4">
      <!-- 70 -->
      <g transform="translate(482.582955 518.598438)scale(0.1 -0.1)">
       <defs>
        <path id="DejaVuSans-37" d="M 525 4666 
L 3525 4666 
L 3525 4397 
L 1831 0 
L 1172 0 
L 2766 4134 
L 525 4134 
L 525 4666 
z
" transform="scale(0.015625)"/>
       </defs>
       <use xlink:href="#DejaVuSans-37"/>
       <use xlink:href="#DejaVuSans-30" x="63.623047"/>
      </g>
     </g>
    </g>
    <g id="xtick_5">
     <g id="line2d_5">
      <g>
       <use xlink:href="#m87ebee34e4" x="590.4" y="504" style="stroke: #000000; stroke-width: 0.8"/>
      </g>
     </g>
     <g id="text_5">
      <!-- 80 -->
      <g transform="translate(584.0375 518.598438)scale(0.1 -0.1)">
       <defs>
        <path id="DejaVuSans-38" d="M 2034 2216 
Q 1584 2216 1326 1975 
Q 1069 1734 1069 1313 
Q 1069 891 1326 650 
Q 1584 409 2034 409 
Q 2484 409 2743 651 
Q 3003 894 3003 1313 
Q 3003 1734 2745 1975 
Q 2488 2216 2034 2216 
z
M 1403 2484 
Q 997 2584 770 2862 
Q 544 3141 544 3541 
Q 544 4100 942 4425 
Q 1341 4750 2034 4750 
Q 2731 4750 3128 4425 
Q 3525 4100 3525 3541 
Q 3525 3141 3298 2862 
Q 3072 2584 2669 2484 
Q 3125 2378 3379 2068 
Q 3634 1759 3634 1313 
Q 3634 634 3220 271 
Q 2806 -91 2034 -91 
Q 1263 -91 848 271 
Q 434 634 434 1313 
Q 434 1759 690 2068 
Q 947 2378 1403 2484 
z
M 1172 3481 
Q 1172 3119 1398 2916 
Q 1625 2713 2034 2713 
Q 2441 2713 2670 2916 
Q 2900 3119 2900 3481 
Q 2900 3844 2670 4047 
Q 2441 4250 2034 4250 
Q 1625 4250 1398 4047 
Q 1172 3844 1172 3481 
z
" transform="scale(0.015625)"/>
       </defs>
       <use xlink:href="#DejaVuSans-38"/>
       <use xlink:href="#DejaVuSans-30" x="63.623047"/>
      </g>
     </g>
    </g>
    <g id="xtick_6">
     <g id="line2d_6">
      <g>
       <use xlink:href="#m87ebee34e4" x="691.854545" y="504" style="stroke: #000000; stroke-width: 0.8"/>
      </g>
     </g>
     <g id="text_6">
      <!-- 90 -->
      <g transform="translate(685.492045 518.598438)scale(0.1 -0.1)">
       <defs>
        <path id="DejaVuSans-39" d="M 703 97 
L 703 672 
Q 941 559 1184 500 
Q 1428 441 1663 441 
Q 2288 441 2617 861 
Q 2947 1281 2994 2138 
Q 2813 1869 2534 1725 
Q 2256 1581 1919 1581 
Q 1219 1581 811 2004 
Q 403 2428 403 3163 
Q 403 3881 828 4315 
Q 1253 4750 1959 4750 
Q 2769 4750 3195 4129 
Q 3622 3509 3622 2328 
Q 3622 1225 3098 567 
Q 2575 -91 1691 -91 
Q 1453 -91 1209 -44 
Q 966 3 703 97 
z
M 1959 2075 
Q 2384 2075 2632 2365 
Q 2881 2656 2881 3163 
Q 2881 3666 2632 3958 
Q 2384 4250 1959 4250 
Q 1534 4250 1286 3958 
Q 1038 3666 1038 3163 
Q 1038 2656 1286 2365 
Q 1534 2075 1959 2075 
z
" transform="scale(0.015625)"/>
       </defs>
       <use xlink:href="#DejaVuSans-39"/>
       <use xlink:href="#DejaVuSans-30" x="63.623047"/>
      </g>
     </g>
    </g>
    <g id="xtick_7">
     <g id="line2d_7">
      <g>
       <use xlink:href="#m87ebee34e4" x="793.309091" y="504" style="stroke: #000000; stroke-width: 0.8"/>
      </g>
     </g>
     <g id="text_7">
      <!-- 100 -->
      <g transform="translate(783.765341 518.598438)scale(0.1 -0.1)">
       <defs>
        <path id="DejaVuSans-31" d="M 794 531 
L 1825 531 
L 1825 4091 
L 703 3866 
L 703 4441 
L 1819 4666 
L 2450 4666 
L 2450 531 
L 3481 531 
L 3481 0 
L 794 0 
L 794 531 
z
" transform="scale(0.015625)"/>
       </defs>
       <use xlink:href="#DejaVuSans-31"/>
       <use xlink:href="#DejaVuSans-30" x="63.623047"/>
       <use xlink:href="#DejaVuSans-30" x="127.246094"/>
      </g>
     </g>
    </g>
    <g id="xtick_8">
     <g id="line2d_8">
      <g>
       <use xlink:href="#m87ebee34e4" x="894.763636" y="504" style="stroke: #000000; stroke-width: 0.8"/>
      </g>
     </g>
     <g id="text_8">
      <!-- 110 -->
      <g transform="translate(885.219886 518.598438)scale(0.1 -0.1)">
       <use xlink:href="#DejaVuSans-31"/>
       <use xlink:href="#DejaVuSans-31" x="63.623047"/>
       <use xlink:href="#DejaVuSans-30" x="127.246094"/>
      </g>
     </g>
    </g>
    <g id="xtick_9">
     <g id="line2d_9">
      <g>
       <use xlink:href="#m87ebee34e4" x="996.218182" y="504" style="stroke: #000000; stroke-width: 0.8"/>
      </g>
     </g>
     <g id="text_9">
      <!-- 120 -->
      <g transform="translate(986.674432 518.598438)scale(0.1 -0.1)">
       <defs>
        <path id="DejaVuSans-32" d="M 1228 531 
L 3431 531 
L 3431 0 
L 469 0 
L 469 531 
Q 828 903 1448 1529 
Q 2069 2156 2228 2338 
Q 2531 2678 2651 2914 
Q 2772 3150 2772 3378 
Q 2772 3750 2511 3984 
Q 2250 4219 1831 4219 
Q 1534 4219 1204 4116 
Q 875 4013 500 3803 
L 500 4441 
Q 881 4594 1212 4672 
Q 1544 4750 1819 4750 
Q 2544 4750 2975 4387 
Q 3406 4025 3406 3419 
Q 3406 3131 3298 2873 
Q 3191 2616 2906 2266 
Q 2828 2175 2409 1742 
Q 1991 1309 1228 531 
z
" transform="scale(0.015625)"/>
       </defs>
       <use xlink:href="#DejaVuSans-31"/>
       <use xlink:href="#DejaVuSans-32" x="63.623047"/>
       <use xlink:href="#DejaVuSans-30" x="127.246094"/>
      </g>
     </g>
    </g>
   </g>
   <g id="matplotlib.axis_2">
    <g id="ytick_1">
     <g id="line2d_10">
      <defs>
       <path id="m2cb248fbb5" d="M 0 0 
L -3.5 0 
" style="stroke: #000000; stroke-width: 0.8"/>
      </defs>
      <g>
       <use xlink:href="#m2cb248fbb5" x="144" y="481.807295" style="stroke: #000000; stroke-width: 0.8"/>
      </g>
     </g>
     <g id="text_10">
      <!-- 0.0 -->
      <g transform="translate(121.096875 485.606514)scale(0.1 -0.1)">
       <defs>
        <path id="DejaVuSans-2e" d="M 684 794 
L 1344 794 
L 1344 0 
L 684 0 
L 684 794 
z
" transform="scale(0.015625)"/>
       </defs>
       <use xlink:href="#DejaVuSans-30"/>
       <use xlink:href="#DejaVuSans-2e" x="63.623047"/>
       <use xlink:href="#DejaVuSans-30" x="95.410156"/>
      </g>
     </g>
    </g>
    <g id="ytick_2">
     <g id="line2d_11">
      <g>
       <use xlink:href="#m2cb248fbb5" x="144" y="421.171489" style="stroke: #000000; stroke-width: 0.8"/>
      </g>
     </g>
     <g id="text_11">
      <!-- 0.1 -->
      <g transform="translate(121.096875 424.970708)scale(0.1 -0.1)">
       <use xlink:href="#DejaVuSans-30"/>
       <use xlink:href="#DejaVuSans-2e" x="63.623047"/>
       <use xlink:href="#DejaVuSans-31" x="95.410156"/>
      </g>
     </g>
    </g>
    <g id="ytick_3">
     <g id="line2d_12">
      <g>
       <use xlink:href="#m2cb248fbb5" x="144" y="360.535683" style="stroke: #000000; stroke-width: 0.8"/>
      </g>
     </g>
     <g id="text_12">
      <!-- 0.2 -->
      <g transform="translate(121.096875 364.334902)scale(0.1 -0.1)">
       <use xlink:href="#DejaVuSans-30"/>
       <use xlink:href="#DejaVuSans-2e" x="63.623047"/>
       <use xlink:href="#DejaVuSans-32" x="95.410156"/>
      </g>
     </g>
    </g>
    <g id="ytick_4">
     <g id="line2d_13">
      <g>
       <use xlink:href="#m2cb248fbb5" x="144" y="299.899877" style="stroke: #000000; stroke-width: 0.8"/>
      </g>
     </g>
     <g id="text_13">
      <!-- 0.3 -->
      <g transform="translate(121.096875 303.699096)scale(0.1 -0.1)">
       <defs>
        <path id="DejaVuSans-33" d="M 2597 2516 
Q 3050 2419 3304 2112 
Q 3559 1806 3559 1356 
Q 3559 666 3084 287 
Q 2609 -91 1734 -91 
Q 1441 -91 1130 -33 
Q 819 25 488 141 
L 488 750 
Q 750 597 1062 519 
Q 1375 441 1716 441 
Q 2309 441 2620 675 
Q 2931 909 2931 1356 
Q 2931 1769 2642 2001 
Q 2353 2234 1838 2234 
L 1294 2234 
L 1294 2753 
L 1863 2753 
Q 2328 2753 2575 2939 
Q 2822 3125 2822 3475 
Q 2822 3834 2567 4026 
Q 2313 4219 1838 4219 
Q 1578 4219 1281 4162 
Q 984 4106 628 3988 
L 628 4550 
Q 988 4650 1302 4700 
Q 1616 4750 1894 4750 
Q 2613 4750 3031 4423 
Q 3450 4097 3450 3541 
Q 3450 3153 3228 2886 
Q 3006 2619 2597 2516 
z
" transform="scale(0.015625)"/>
       </defs>
       <use xlink:href="#DejaVuSans-30"/>
       <use xlink:href="#DejaVuSans-2e" x="63.623047"/>
       <use xlink:href="#DejaVuSans-33" x="95.410156"/>
      </g>
     </g>
    </g>
    <g id="ytick_5">
     <g id="line2d_14">
      <g>
       <use xlink:href="#m2cb248fbb5" x="144" y="239.264071" style="stroke: #000000; stroke-width: 0.8"/>
      </g>
     </g>
     <g id="text_14">
      <!-- 0.4 -->
      <g transform="translate(121.096875 243.06329)scale(0.1 -0.1)">
       <use xlink:href="#DejaVuSans-30"/>
       <use xlink:href="#DejaVuSans-2e" x="63.623047"/>
       <use xlink:href="#DejaVuSans-34" x="95.410156"/>
      </g>
     </g>
    </g>
    <g id="ytick_6">
     <g id="line2d_15">
      <g>
       <use xlink:href="#m2cb248fbb5" x="144" y="178.628265" style="stroke: #000000; stroke-width: 0.8"/>
      </g>
     </g>
     <g id="text_15">
      <!-- 0.5 -->
      <g transform="translate(121.096875 182.427484)scale(0.1 -0.1)">
       <use xlink:href="#DejaVuSans-30"/>
       <use xlink:href="#DejaVuSans-2e" x="63.623047"/>
       <use xlink:href="#DejaVuSans-35" x="95.410156"/>
      </g>
     </g>
    </g>
    <g id="ytick_7">
     <g id="line2d_16">
      <g>
       <use xlink:href="#m2cb248fbb5" x="144" y="117.99246" style="stroke: #000000; stroke-width: 0.8"/>
      </g>
     </g>
     <g id="text_16">
      <!-- 0.6 -->
      <g transform="translate(121.096875 121.791678)scale(0.1 -0.1)">
       <use xlink:href="#DejaVuSans-30"/>
       <use xlink:href="#DejaVuSans-2e" x="63.623047"/>
       <use xlink:href="#DejaVuSans-36" x="95.410156"/>
      </g>
     </g>
    </g>
   </g>
   <g id="line2d_17">
    <defs>
     <path id="m9e0c455729" d="M 0 1 
C 0.265203 1 0.51958 0.894634 0.707107 0.707107 
C 0.894634 0.51958 1 0.265203 1 0 
C 1 -0.265203 0.894634 -0.51958 0.707107 -0.707107 
C 0.51958 -0.894634 0.265203 -1 0 -1 
C -0.265203 -1 -0.51958 -0.894634 -0.707107 -0.707107 
C -0.894634 -0.51958 -1 -0.265203 -1 0 
C -1 0.265203 -0.894634 0.51958 -0.707107 0.707107 
C -0.51958 0.894634 -0.265203 1 0 1 
z
" style="stroke: #ff0000"/>
    </defs>
    <g clip-path="url(#p862fcee537)">
     <use xlink:href="#m9e0c455729" x="491.481818" y="455.12754" style="fill: #ff0000; stroke: #ff0000"/>
     <use xlink:href="#m9e0c455729" x="491.481818" y="413.895192" style="fill: #ff0000; stroke: #ff0000"/>
     <use xlink:href="#m9e0c455729" x="491.481818" y="401.768031" style="fill: #ff0000; stroke: #ff0000"/>
     <use xlink:href="#m9e0c455729" x="491.481818" y="292.623581" style="fill: #ff0000; stroke: #ff0000"/>
     <use xlink:href="#m9e0c455729" x="491.481818" y="285.347284" style="fill: #ff0000; stroke: #ff0000"/>
     <use xlink:href="#m9e0c455729" x="491.481818" y="268.369258" style="fill: #ff0000; stroke: #ff0000"/>
    </g>
   </g>
   <g id="line2d_18">
    <g clip-path="url(#p862fcee537)">
     <use xlink:href="#m9e0c455729" x="539.672727" y="475.743714" style="fill: #ff0000; stroke: #ff0000"/>
     <use xlink:href="#m9e0c455729" x="539.672727" y="463.616553" style="fill: #ff0000; stroke: #ff0000"/>
     <use xlink:href="#m9e0c455729" x="539.672727" y="453.914824" style="fill: #ff0000; stroke: #ff0000"/>
     <use xlink:href="#m9e0c455729" x="539.672727" y="444.213095" style="fill: #ff0000; stroke: #ff0000"/>
     <use xlink:href="#m9e0c455729" x="539.672727" y="422.384205" style="fill: #ff0000; stroke: #ff0000"/>
     <use xlink:href="#m9e0c455729" x="539.672727" y="415.107909" style="fill: #ff0000; stroke: #ff0000"/>
     <use xlink:href="#m9e0c455729" x="539.672727" y="405.40618" style="fill: #ff0000; stroke: #ff0000"/>
     <use xlink:href="#m9e0c455729" x="539.672727" y="378.726425" style="fill: #ff0000; stroke: #ff0000"/>
     <use xlink:href="#m9e0c455729" x="539.672727" y="371.450128" style="fill: #ff0000; stroke: #ff0000"/>
     <use xlink:href="#m9e0c455729" x="539.672727" y="356.897535" style="fill: #ff0000; stroke: #ff0000"/>
     <use xlink:href="#m9e0c455729" x="539.672727" y="342.344941" style="fill: #ff0000; stroke: #ff0000"/>
     <use xlink:href="#m9e0c455729" x="539.672727" y="335.068645" style="fill: #ff0000; stroke: #ff0000"/>
     <use xlink:href="#m9e0c455729" x="539.672727" y="305.963458" style="fill: #ff0000; stroke: #ff0000"/>
     <use xlink:href="#m9e0c455729" x="539.672727" y="296.261729" style="fill: #ff0000; stroke: #ff0000"/>
     <use xlink:href="#m9e0c455729" x="539.672727" y="281.709136" style="fill: #ff0000; stroke: #ff0000"/>
     <use xlink:href="#m9e0c455729" x="539.672727" y="274.432839" style="fill: #ff0000; stroke: #ff0000"/>
     <use xlink:href="#m9e0c455729" x="539.672727" y="264.73111" style="fill: #ff0000; stroke: #ff0000"/>
     <use xlink:href="#m9e0c455729" x="539.672727" y="257.454813" style="fill: #ff0000; stroke: #ff0000"/>
     <use xlink:href="#m9e0c455729" x="539.672727" y="250.178516" style="fill: #ff0000; stroke: #ff0000"/>
    </g>
   </g>
   <g id="line2d_19">
    <g clip-path="url(#p862fcee537)">
     <use xlink:href="#m9e0c455729" x="509.236364" y="462.403837" style="fill: #ff0000; stroke: #ff0000"/>
     <use xlink:href="#m9e0c455729" x="509.236364" y="452.702108" style="fill: #ff0000; stroke: #ff0000"/>
     <use xlink:href="#m9e0c455729" x="509.236364" y="445.425811" style="fill: #ff0000; stroke: #ff0000"/>
     <use xlink:href="#m9e0c455729" x="509.236364" y="438.149515" style="fill: #ff0000; stroke: #ff0000"/>
     <use xlink:href="#m9e0c455729" x="509.236364" y="426.022354" style="fill: #ff0000; stroke: #ff0000"/>
     <use xlink:href="#m9e0c455729" x="509.236364" y="409.044328" style="fill: #ff0000; stroke: #ff0000"/>
     <use xlink:href="#m9e0c455729" x="509.236364" y="384.790006" style="fill: #ff0000; stroke: #ff0000"/>
     <use xlink:href="#m9e0c455729" x="509.236364" y="375.088277" style="fill: #ff0000; stroke: #ff0000"/>
     <use xlink:href="#m9e0c455729" x="509.236364" y="302.32531" style="fill: #ff0000; stroke: #ff0000"/>
     <use xlink:href="#m9e0c455729" x="509.236364" y="285.347284" style="fill: #ff0000; stroke: #ff0000"/>
     <use xlink:href="#m9e0c455729" x="509.236364" y="278.070987" style="fill: #ff0000; stroke: #ff0000"/>
     <use xlink:href="#m9e0c455729" x="509.236364" y="270.79469" style="fill: #ff0000; stroke: #ff0000"/>
     <use xlink:href="#m9e0c455729" x="509.236364" y="263.518394" style="fill: #ff0000; stroke: #ff0000"/>
    </g>
   </g>
   <g id="line2d_20">
    <g clip-path="url(#p862fcee537)">
     <use xlink:href="#m9e0c455729" x="494.018182" y="455.12754" style="fill: #ff0000; stroke: #ff0000"/>
     <use xlink:href="#m9e0c455729" x="494.018182" y="416.320625" style="fill: #ff0000; stroke: #ff0000"/>
     <use xlink:href="#m9e0c455729" x="494.018182" y="399.342599" style="fill: #ff0000; stroke: #ff0000"/>
     <use xlink:href="#m9e0c455729" x="494.018182" y="295.049013" style="fill: #ff0000; stroke: #ff0000"/>
     <use xlink:href="#m9e0c455729" x="494.018182" y="285.347284" style="fill: #ff0000; stroke: #ff0000"/>
     <use xlink:href="#m9e0c455729" x="494.018182" y="268.369258" style="fill: #ff0000; stroke: #ff0000"/>
    </g>
   </g>
   <g id="line2d_21">
    <g clip-path="url(#p862fcee537)">
     <use xlink:href="#m9e0c455729" x="483.872727" y="450.276676" style="fill: #ff0000; stroke: #ff0000"/>
     <use xlink:href="#m9e0c455729" x="483.872727" y="413.895192" style="fill: #ff0000; stroke: #ff0000"/>
     <use xlink:href="#m9e0c455729" x="483.872727" y="290.198148" style="fill: #ff0000; stroke: #ff0000"/>
     <use xlink:href="#m9e0c455729" x="483.872727" y="270.79469" style="fill: #ff0000; stroke: #ff0000"/>
    </g>
   </g>
   <g id="line2d_22">
    <g clip-path="url(#p862fcee537)">
     <use xlink:href="#m9e0c455729" x="486.409091" y="452.702108" style="fill: #ff0000; stroke: #ff0000"/>
     <use xlink:href="#m9e0c455729" x="486.409091" y="411.46976" style="fill: #ff0000; stroke: #ff0000"/>
     <use xlink:href="#m9e0c455729" x="486.409091" y="290.198148" style="fill: #ff0000; stroke: #ff0000"/>
     <use xlink:href="#m9e0c455729" x="486.409091" y="268.369258" style="fill: #ff0000; stroke: #ff0000"/>
    </g>
   </g>
   <g id="line2d_23">
    <g clip-path="url(#p862fcee537)">
     <use xlink:href="#m9e0c455729" x="490.213636" y="455.12754" style="fill: #ff0000; stroke: #ff0000"/>
     <use xlink:href="#m9e0c455729" x="490.213636" y="411.46976" style="fill: #ff0000; stroke: #ff0000"/>
     <use xlink:href="#m9e0c455729" x="490.213636" y="404.193463" style="fill: #ff0000; stroke: #ff0000"/>
     <use xlink:href="#m9e0c455729" x="490.213636" y="292.623581" style="fill: #ff0000; stroke: #ff0000"/>
     <use xlink:href="#m9e0c455729" x="490.213636" y="268.369258" style="fill: #ff0000; stroke: #ff0000"/>
    </g>
   </g>
   <g id="line2d_24">
    <g clip-path="url(#p862fcee537)">
     <use xlink:href="#m9e0c455729" x="496.554545" y="457.552973" style="fill: #ff0000; stroke: #ff0000"/>
     <use xlink:href="#m9e0c455729" x="496.554545" y="450.276676" style="fill: #ff0000; stroke: #ff0000"/>
     <use xlink:href="#m9e0c455729" x="496.554545" y="426.022354" style="fill: #ff0000; stroke: #ff0000"/>
     <use xlink:href="#m9e0c455729" x="496.554545" y="418.746057" style="fill: #ff0000; stroke: #ff0000"/>
     <use xlink:href="#m9e0c455729" x="496.554545" y="409.044328" style="fill: #ff0000; stroke: #ff0000"/>
     <use xlink:href="#m9e0c455729" x="496.554545" y="401.768031" style="fill: #ff0000; stroke: #ff0000"/>
     <use xlink:href="#m9e0c455729" x="496.554545" y="394.491735" style="fill: #ff0000; stroke: #ff0000"/>
     <use xlink:href="#m9e0c455729" x="496.554545" y="295.049013" style="fill: #ff0000; stroke: #ff0000"/>
     <use xlink:href="#m9e0c455729" x="496.554545" y="287.772716" style="fill: #ff0000; stroke: #ff0000"/>
     <use xlink:href="#m9e0c455729" x="496.554545" y="280.496419" style="fill: #ff0000; stroke: #ff0000"/>
     <use xlink:href="#m9e0c455729" x="496.554545" y="270.79469" style="fill: #ff0000; stroke: #ff0000"/>
     <use xlink:href="#m9e0c455729" x="496.554545" y="263.518394" style="fill: #ff0000; stroke: #ff0000"/>
    </g>
   </g>
   <g id="line2d_25">
    <g clip-path="url(#p862fcee537)">
     <use xlink:href="#m9e0c455729" x="488.945455" y="452.702108" style="fill: #ff0000; stroke: #ff0000"/>
     <use xlink:href="#m9e0c455729" x="488.945455" y="409.044328" style="fill: #ff0000; stroke: #ff0000"/>
     <use xlink:href="#m9e0c455729" x="488.945455" y="290.198148" style="fill: #ff0000; stroke: #ff0000"/>
     <use xlink:href="#m9e0c455729" x="488.945455" y="268.369258" style="fill: #ff0000; stroke: #ff0000"/>
    </g>
   </g>
   <g id="line2d_26">
    <g clip-path="url(#p862fcee537)">
     <use xlink:href="#m9e0c455729" x="235.309091" y="383.577289" style="fill: #ff0000; stroke: #ff0000"/>
    </g>
   </g>
   <g id="line2d_27">
    <g clip-path="url(#p862fcee537)">
     <use xlink:href="#m9e0c455729" x="488.945455" y="455.12754" style="fill: #ff0000; stroke: #ff0000"/>
     <use xlink:href="#m9e0c455729" x="488.945455" y="416.320625" style="fill: #ff0000; stroke: #ff0000"/>
     <use xlink:href="#m9e0c455729" x="488.945455" y="399.342599" style="fill: #ff0000; stroke: #ff0000"/>
     <use xlink:href="#m9e0c455729" x="488.945455" y="292.623581" style="fill: #ff0000; stroke: #ff0000"/>
     <use xlink:href="#m9e0c455729" x="488.945455" y="285.347284" style="fill: #ff0000; stroke: #ff0000"/>
     <use xlink:href="#m9e0c455729" x="488.945455" y="265.943826" style="fill: #ff0000; stroke: #ff0000"/>
    </g>
   </g>
   <g id="line2d_28">
    <g clip-path="url(#p862fcee537)">
     <use xlink:href="#m9e0c455729" x="499.090909" y="457.552973" style="fill: #ff0000; stroke: #ff0000"/>
     <use xlink:href="#m9e0c455729" x="499.090909" y="450.276676" style="fill: #ff0000; stroke: #ff0000"/>
     <use xlink:href="#m9e0c455729" x="499.090909" y="430.873218" style="fill: #ff0000; stroke: #ff0000"/>
     <use xlink:href="#m9e0c455729" x="499.090909" y="423.596927" style="fill: #ff0000; stroke: #ff0000"/>
     <use xlink:href="#m9e0c455729" x="499.090909" y="413.895192" style="fill: #ff0000; stroke: #ff0000"/>
     <use xlink:href="#m9e0c455729" x="499.090909" y="406.618896" style="fill: #ff0000; stroke: #ff0000"/>
     <use xlink:href="#m9e0c455729" x="499.090909" y="396.917167" style="fill: #ff0000; stroke: #ff0000"/>
     <use xlink:href="#m9e0c455729" x="499.090909" y="389.64087" style="fill: #ff0000; stroke: #ff0000"/>
     <use xlink:href="#m9e0c455729" x="499.090909" y="297.474445" style="fill: #ff0000; stroke: #ff0000"/>
     <use xlink:href="#m9e0c455729" x="499.090909" y="290.198148" style="fill: #ff0000; stroke: #ff0000"/>
     <use xlink:href="#m9e0c455729" x="499.090909" y="280.496419" style="fill: #ff0000; stroke: #ff0000"/>
     <use xlink:href="#m9e0c455729" x="499.090909" y="270.79469" style="fill: #ff0000; stroke: #ff0000"/>
     <use xlink:href="#m9e0c455729" x="499.090909" y="263.518394" style="fill: #ff0000; stroke: #ff0000"/>
    </g>
   </g>
   <g id="line2d_29">
    <g clip-path="url(#p862fcee537)">
     <use xlink:href="#m9e0c455729" x="494.525455" y="456.340257" style="fill: #ff0000; stroke: #ff0000"/>
     <use xlink:href="#m9e0c455729" x="494.525455" y="449.06396" style="fill: #ff0000; stroke: #ff0000"/>
     <use xlink:href="#m9e0c455729" x="494.525455" y="422.384205" style="fill: #ff0000; stroke: #ff0000"/>
     <use xlink:href="#m9e0c455729" x="494.525455" y="415.107909" style="fill: #ff0000; stroke: #ff0000"/>
     <use xlink:href="#m9e0c455729" x="494.525455" y="400.555315" style="fill: #ff0000; stroke: #ff0000"/>
     <use xlink:href="#m9e0c455729" x="494.525455" y="296.261729" style="fill: #ff0000; stroke: #ff0000"/>
     <use xlink:href="#m9e0c455729" x="494.525455" y="286.56" style="fill: #ff0000; stroke: #ff0000"/>
     <use xlink:href="#m9e0c455729" x="494.525455" y="269.581974" style="fill: #ff0000; stroke: #ff0000"/>
    </g>
   </g>
   <g id="line2d_30">
    <g clip-path="url(#p862fcee537)">
     <use xlink:href="#m9e0c455729" x="487.677273" y="452.702108" style="fill: #ff0000; stroke: #ff0000"/>
     <use xlink:href="#m9e0c455729" x="487.677273" y="411.46976" style="fill: #ff0000; stroke: #ff0000"/>
     <use xlink:href="#m9e0c455729" x="487.677273" y="290.198148" style="fill: #ff0000; stroke: #ff0000"/>
     <use xlink:href="#m9e0c455729" x="487.677273" y="268.369258" style="fill: #ff0000; stroke: #ff0000"/>
    </g>
   </g>
   <g id="line2d_31">
    <g clip-path="url(#p862fcee537)">
     <use xlink:href="#m9e0c455729" x="641.127273" y="484.232727" style="fill: #ff0000; stroke: #ff0000"/>
     <use xlink:href="#m9e0c455729" x="641.127273" y="474.530998" style="fill: #ff0000; stroke: #ff0000"/>
     <use xlink:href="#m9e0c455729" x="641.127273" y="421.171495" style="fill: #ff0000; stroke: #ff0000"/>
     <use xlink:href="#m9e0c455729" x="641.127273" y="411.46976" style="fill: #ff0000; stroke: #ff0000"/>
     <use xlink:href="#m9e0c455729" x="641.127273" y="396.917167" style="fill: #ff0000; stroke: #ff0000"/>
     <use xlink:href="#m9e0c455729" x="641.127273" y="387.215438" style="fill: #ff0000; stroke: #ff0000"/>
     <use xlink:href="#m9e0c455729" x="641.127273" y="377.513709" style="fill: #ff0000; stroke: #ff0000"/>
     <use xlink:href="#m9e0c455729" x="641.127273" y="222.286046" style="fill: #ff0000; stroke: #ff0000"/>
     <use xlink:href="#m9e0c455729" x="641.127273" y="212.584317" style="fill: #ff0000; stroke: #ff0000"/>
    </g>
   </g>
   <g id="line2d_32">
    <g clip-path="url(#p862fcee537)">
     <use xlink:href="#m9e0c455729" x="495.286364" y="456.340257" style="fill: #ff0000; stroke: #ff0000"/>
     <use xlink:href="#m9e0c455729" x="495.286364" y="449.06396" style="fill: #ff0000; stroke: #ff0000"/>
     <use xlink:href="#m9e0c455729" x="495.286364" y="422.384205" style="fill: #ff0000; stroke: #ff0000"/>
     <use xlink:href="#m9e0c455729" x="495.286364" y="415.107909" style="fill: #ff0000; stroke: #ff0000"/>
     <use xlink:href="#m9e0c455729" x="495.286364" y="407.831612" style="fill: #ff0000; stroke: #ff0000"/>
     <use xlink:href="#m9e0c455729" x="495.286364" y="400.555315" style="fill: #ff0000; stroke: #ff0000"/>
     <use xlink:href="#m9e0c455729" x="495.286364" y="296.261729" style="fill: #ff0000; stroke: #ff0000"/>
     <use xlink:href="#m9e0c455729" x="495.286364" y="288.985432" style="fill: #ff0000; stroke: #ff0000"/>
     <use xlink:href="#m9e0c455729" x="495.286364" y="281.709136" style="fill: #ff0000; stroke: #ff0000"/>
     <use xlink:href="#m9e0c455729" x="495.286364" y="269.581974" style="fill: #ff0000; stroke: #ff0000"/>
    </g>
   </g>
   <g id="line2d_33">
    <g clip-path="url(#p862fcee537)">
     <use xlink:href="#m9e0c455729" x="489.452727" y="452.702108" style="fill: #ff0000; stroke: #ff0000"/>
     <use xlink:href="#m9e0c455729" x="489.452727" y="411.46976" style="fill: #ff0000; stroke: #ff0000"/>
     <use xlink:href="#m9e0c455729" x="489.452727" y="292.623581" style="fill: #ff0000; stroke: #ff0000"/>
     <use xlink:href="#m9e0c455729" x="489.452727" y="268.369258" style="fill: #ff0000; stroke: #ff0000"/>
    </g>
   </g>
   <g id="line2d_34">
    <g clip-path="url(#p862fcee537)">
     <use xlink:href="#m9e0c455729" x="499.090909" y="457.552973" style="fill: #ff0000; stroke: #ff0000"/>
     <use xlink:href="#m9e0c455729" x="499.090909" y="450.276676" style="fill: #ff0000; stroke: #ff0000"/>
     <use xlink:href="#m9e0c455729" x="499.090909" y="426.022354" style="fill: #ff0000; stroke: #ff0000"/>
     <use xlink:href="#m9e0c455729" x="499.090909" y="416.320625" style="fill: #ff0000; stroke: #ff0000"/>
     <use xlink:href="#m9e0c455729" x="499.090909" y="409.044328" style="fill: #ff0000; stroke: #ff0000"/>
     <use xlink:href="#m9e0c455729" x="499.090909" y="401.768031" style="fill: #ff0000; stroke: #ff0000"/>
     <use xlink:href="#m9e0c455729" x="499.090909" y="392.066302" style="fill: #ff0000; stroke: #ff0000"/>
     <use xlink:href="#m9e0c455729" x="499.090909" y="295.049013" style="fill: #ff0000; stroke: #ff0000"/>
     <use xlink:href="#m9e0c455729" x="499.090909" y="287.772716" style="fill: #ff0000; stroke: #ff0000"/>
     <use xlink:href="#m9e0c455729" x="499.090909" y="280.496419" style="fill: #ff0000; stroke: #ff0000"/>
     <use xlink:href="#m9e0c455729" x="499.090909" y="268.369258" style="fill: #ff0000; stroke: #ff0000"/>
    </g>
   </g>
   <g id="line2d_35">
    <g clip-path="url(#p862fcee537)">
     <use xlink:href="#m9e0c455729" x="742.581818" y="469.680134" style="fill: #ff0000; stroke: #ff0000"/>
     <use xlink:href="#m9e0c455729" x="742.581818" y="450.276676" style="fill: #ff0000; stroke: #ff0000"/>
     <use xlink:href="#m9e0c455729" x="742.581818" y="440.574947" style="fill: #ff0000; stroke: #ff0000"/>
     <use xlink:href="#m9e0c455729" x="742.581818" y="411.46976" style="fill: #ff0000; stroke: #ff0000"/>
     <use xlink:href="#m9e0c455729" x="742.581818" y="401.768031" style="fill: #ff0000; stroke: #ff0000"/>
     <use xlink:href="#m9e0c455729" x="742.581818" y="382.364573" style="fill: #ff0000; stroke: #ff0000"/>
     <use xlink:href="#m9e0c455729" x="742.581818" y="372.662844" style="fill: #ff0000; stroke: #ff0000"/>
     <use xlink:href="#m9e0c455729" x="742.581818" y="362.961115" style="fill: #ff0000; stroke: #ff0000"/>
     <use xlink:href="#m9e0c455729" x="742.581818" y="353.259387" style="fill: #ff0000; stroke: #ff0000"/>
     <use xlink:href="#m9e0c455729" x="742.581818" y="333.855929" style="fill: #ff0000; stroke: #ff0000"/>
     <use xlink:href="#m9e0c455729" x="742.581818" y="319.303335" style="fill: #ff0000; stroke: #ff0000"/>
     <use xlink:href="#m9e0c455729" x="742.581818" y="309.601606" style="fill: #ff0000; stroke: #ff0000"/>
     <use xlink:href="#m9e0c455729" x="742.581818" y="295.049013" style="fill: #ff0000; stroke: #ff0000"/>
     <use xlink:href="#m9e0c455729" x="742.581818" y="275.645555" style="fill: #ff0000; stroke: #ff0000"/>
     <use xlink:href="#m9e0c455729" x="742.581818" y="261.092962" style="fill: #ff0000; stroke: #ff0000"/>
     <use xlink:href="#m9e0c455729" x="742.581818" y="251.391233" style="fill: #ff0000; stroke: #ff0000"/>
     <use xlink:href="#m9e0c455729" x="742.581818" y="241.689504" style="fill: #ff0000; stroke: #ff0000"/>
     <use xlink:href="#m9e0c455729" x="742.581818" y="231.987775" style="fill: #ff0000; stroke: #ff0000"/>
     <use xlink:href="#m9e0c455729" x="742.581818" y="217.435181" style="fill: #ff0000; stroke: #ff0000"/>
     <use xlink:href="#m9e0c455729" x="742.581818" y="198.031723" style="fill: #ff0000; stroke: #ff0000"/>
     <use xlink:href="#m9e0c455729" x="742.581818" y="188.329994" style="fill: #ff0000; stroke: #ff0000"/>
     <use xlink:href="#m9e0c455729" x="742.581818" y="178.628265" style="fill: #ff0000; stroke: #ff0000"/>
    </g>
   </g>
   <g id="line2d_36">
    <defs>
     <path id="m0b79a05da0" d="M 0 1 
C 0.265203 1 0.51958 0.894634 0.707107 0.707107 
C 0.894634 0.51958 1 0.265203 1 0 
C 1 -0.265203 0.894634 -0.51958 0.707107 -0.707107 
C 0.51958 -0.894634 0.265203 -1 0 -1 
C -0.265203 -1 -0.51958 -0.894634 -0.707107 -0.707107 
C -0.894634 -0.51958 -1 -0.265203 -1 0 
C -1 0.265203 -0.894634 0.51958 -0.707107 0.707107 
C -0.51958 0.894634 -0.265203 1 0 1 
z
" style="stroke: #000000"/>
    </defs>
    <g clip-path="url(#p862fcee537)">
     <use xlink:href="#m0b79a05da0" x="461.045455" y="435.724083" style="stroke: #000000"/>
     <use xlink:href="#m0b79a05da0" x="461.045455" y="428.447786" style="stroke: #000000"/>
     <use xlink:href="#m0b79a05da0" x="461.045455" y="273.220123" style="stroke: #000000"/>
    </g>
   </g>
   <g id="line2d_37">
    <g clip-path="url(#p862fcee537)">
     <use xlink:href="#m0b79a05da0" x="330.169091" y="360.535683" style="stroke: #000000"/>
     <use xlink:href="#m0b79a05da0" x="330.169091" y="353.259387" style="stroke: #000000"/>
    </g>
   </g>
   <g id="line2d_38">
    <g clip-path="url(#p862fcee537)">
     <use xlink:href="#m0b79a05da0" x="336.763636" y="375.088277" style="stroke: #000000"/>
     <use xlink:href="#m0b79a05da0" x="336.763636" y="341.132225" style="stroke: #000000"/>
    </g>
   </g>
   <g id="line2d_39">
    <g clip-path="url(#p862fcee537)">
     <use xlink:href="#m0b79a05da0" x="793.309091" y="462.403837" style="stroke: #000000"/>
     <use xlink:href="#m0b79a05da0" x="793.309091" y="452.702108" style="stroke: #000000"/>
     <use xlink:href="#m0b79a05da0" x="793.309091" y="423.596927" style="stroke: #000000"/>
     <use xlink:href="#m0b79a05da0" x="793.309091" y="399.342599" style="stroke: #000000"/>
     <use xlink:href="#m0b79a05da0" x="793.309091" y="379.939141" style="stroke: #000000"/>
     <use xlink:href="#m0b79a05da0" x="793.309091" y="370.237412" style="stroke: #000000"/>
     <use xlink:href="#m0b79a05da0" x="793.309091" y="360.535683" style="stroke: #000000"/>
     <use xlink:href="#m0b79a05da0" x="793.309091" y="350.833954" style="stroke: #000000"/>
     <use xlink:href="#m0b79a05da0" x="793.309091" y="341.132225" style="stroke: #000000"/>
     <use xlink:href="#m0b79a05da0" x="793.309091" y="331.430496" style="stroke: #000000"/>
     <use xlink:href="#m0b79a05da0" x="793.309091" y="321.728767" style="stroke: #000000"/>
     <use xlink:href="#m0b79a05da0" x="793.309091" y="312.027038" style="stroke: #000000"/>
     <use xlink:href="#m0b79a05da0" x="793.309091" y="302.32531" style="stroke: #000000"/>
     <use xlink:href="#m0b79a05da0" x="793.309091" y="292.623581" style="stroke: #000000"/>
     <use xlink:href="#m0b79a05da0" x="793.309091" y="282.921852" style="stroke: #000000"/>
     <use xlink:href="#m0b79a05da0" x="793.309091" y="273.220123" style="stroke: #000000"/>
     <use xlink:href="#m0b79a05da0" x="793.309091" y="263.518394" style="stroke: #000000"/>
     <use xlink:href="#m0b79a05da0" x="793.309091" y="253.816665" style="stroke: #000000"/>
     <use xlink:href="#m0b79a05da0" x="793.309091" y="244.114936" style="stroke: #000000"/>
     <use xlink:href="#m0b79a05da0" x="793.309091" y="234.413207" style="stroke: #000000"/>
     <use xlink:href="#m0b79a05da0" x="793.309091" y="224.711478" style="stroke: #000000"/>
     <use xlink:href="#m0b79a05da0" x="793.309091" y="215.009749" style="stroke: #000000"/>
     <use xlink:href="#m0b79a05da0" x="793.309091" y="205.30802" style="stroke: #000000"/>
     <use xlink:href="#m0b79a05da0" x="793.309091" y="190.755427" style="stroke: #000000"/>
     <use xlink:href="#m0b79a05da0" x="793.309091" y="181.053698" style="stroke: #000000"/>
     <use xlink:href="#m0b79a05da0" x="793.309091" y="171.351969" style="stroke: #000000"/>
     <use xlink:href="#m0b79a05da0" x="793.309091" y="161.65024" style="stroke: #000000"/>
     <use xlink:href="#m0b79a05da0" x="793.309091" y="151.948511" style="stroke: #000000"/>
    </g>
   </g>
   <g id="line2d_40">
    <g clip-path="url(#p862fcee537)">
     <use xlink:href="#m0b79a05da0" x="387.490909" y="413.895192" style="stroke: #000000"/>
     <use xlink:href="#m0b79a05da0" x="387.490909" y="297.474445" style="stroke: #000000"/>
    </g>
   </g>
   <g id="line2d_41">
    <g clip-path="url(#p862fcee537)">
     <use xlink:href="#m0b79a05da0" x="332.705455" y="365.386548" style="stroke: #000000"/>
     <use xlink:href="#m0b79a05da0" x="332.705455" y="350.833954" style="stroke: #000000"/>
    </g>
   </g>
   <g id="line2d_42">
    <g clip-path="url(#p862fcee537)">
     <use xlink:href="#m0b79a05da0" x="458.509091" y="430.873218" style="stroke: #000000"/>
     <use xlink:href="#m0b79a05da0" x="458.509091" y="273.220123" style="stroke: #000000"/>
    </g>
   </g>
   <g id="line2d_43">
    <g clip-path="url(#p862fcee537)">
     <use xlink:href="#m0b79a05da0" x="327.632727" y="360.535683" style="stroke: #000000"/>
    </g>
   </g>
   <g id="line2d_44">
    <g clip-path="url(#p862fcee537)">
     <use xlink:href="#m0b79a05da0" x="478.8" y="447.851244" style="stroke: #000000"/>
     <use xlink:href="#m0b79a05da0" x="478.8" y="406.618896" style="stroke: #000000"/>
     <use xlink:href="#m0b79a05da0" x="478.8" y="282.921852" style="stroke: #000000"/>
     <use xlink:href="#m0b79a05da0" x="478.8" y="261.092962" style="stroke: #000000"/>
    </g>
   </g>
   <g id="line2d_45">
    <g clip-path="url(#p862fcee537)">
     <use xlink:href="#m0b79a05da0" x="329.154545" y="360.535683" style="stroke: #000000"/>
    </g>
   </g>
   <g id="line2d_46">
    <g clip-path="url(#p862fcee537)">
     <use xlink:href="#m0b79a05da0" x="463.581818" y="438.149515" style="stroke: #000000"/>
     <use xlink:href="#m0b79a05da0" x="463.581818" y="423.596927" style="stroke: #000000"/>
     <use xlink:href="#m0b79a05da0" x="463.581818" y="275.645555" style="stroke: #000000"/>
     <use xlink:href="#m0b79a05da0" x="463.581818" y="268.369258" style="stroke: #000000"/>
    </g>
   </g>
   <g id="line2d_47">
    <g clip-path="url(#p862fcee537)">
     <use xlink:href="#m0b79a05da0" x="488.945455" y="450.276676" style="stroke: #000000"/>
     <use xlink:href="#m0b79a05da0" x="488.945455" y="404.193463" style="stroke: #000000"/>
     <use xlink:href="#m0b79a05da0" x="488.945455" y="280.496419" style="stroke: #000000"/>
     <use xlink:href="#m0b79a05da0" x="488.945455" y="256.242097" style="stroke: #000000"/>
    </g>
   </g>
   <g id="line2d_48">
    <g clip-path="url(#p862fcee537)">
     <use xlink:href="#m0b79a05da0" x="894.763636" y="433.29865" style="stroke: #000000"/>
     <use xlink:href="#m0b79a05da0" x="894.763636" y="345.98309" style="stroke: #000000"/>
     <use xlink:href="#m0b79a05da0" x="894.763636" y="190.755427" style="stroke: #000000"/>
     <use xlink:href="#m0b79a05da0" x="894.763636" y="122.843324" style="stroke: #000000"/>
    </g>
   </g>
   <g id="line2d_49">
    <g clip-path="url(#p862fcee537)">
     <use xlink:href="#m0b79a05da0" x="459.777273" y="430.873218" style="stroke: #000000"/>
     <use xlink:href="#m0b79a05da0" x="459.777273" y="273.220123" style="stroke: #000000"/>
    </g>
   </g>
   <g id="line2d_50">
    <g clip-path="url(#p862fcee537)">
     <use xlink:href="#m0b79a05da0" x="468.654545" y="443.000379" style="stroke: #000000"/>
     <use xlink:href="#m0b79a05da0" x="468.654545" y="416.320625" style="stroke: #000000"/>
     <use xlink:href="#m0b79a05da0" x="468.654545" y="278.070987" style="stroke: #000000"/>
     <use xlink:href="#m0b79a05da0" x="468.654545" y="263.518394" style="stroke: #000000"/>
    </g>
   </g>
   <g id="line2d_51">
    <g clip-path="url(#p862fcee537)">
     <use xlink:href="#m0b79a05da0" x="448.363636" y="430.873218" style="stroke: #000000"/>
     <use xlink:href="#m0b79a05da0" x="448.363636" y="275.645555" style="stroke: #000000"/>
    </g>
   </g>
   <g id="line2d_52">
    <g clip-path="url(#p862fcee537)">
     <use xlink:href="#m0b79a05da0" x="333.72" y="370.237412" style="stroke: #000000"/>
     <use xlink:href="#m0b79a05da0" x="333.72" y="345.98309" style="stroke: #000000"/>
    </g>
   </g>
   <g id="line2d_53">
    <g clip-path="url(#p862fcee537)">
     <use xlink:href="#m0b79a05da0" x="453.436364" y="430.873218" style="stroke: #000000"/>
     <use xlink:href="#m0b79a05da0" x="453.436364" y="273.220123" style="stroke: #000000"/>
    </g>
   </g>
   <g id="line2d_54">
    <g clip-path="url(#p862fcee537)">
     <use xlink:href="#m0b79a05da0" x="326.618182" y="358.110251" style="stroke: #000000"/>
    </g>
   </g>
   <g id="line2d_55">
    <g clip-path="url(#p862fcee537)">
     <use xlink:href="#m0b79a05da0" x="330.676364" y="360.535683" style="stroke: #000000"/>
    </g>
   </g>
   <g id="line2d_56">
    <g clip-path="url(#p862fcee537)">
     <use xlink:href="#m0b79a05da0" x="438.218182" y="428.447786" style="stroke: #000000"/>
     <use xlink:href="#m0b79a05da0" x="438.218182" y="278.070987" style="stroke: #000000"/>
    </g>
   </g>
   <g id="line2d_57">
    <g clip-path="url(#p862fcee537)">
     <use xlink:href="#m0b79a05da0" x="329.661818" y="360.535683" style="stroke: #000000"/>
     <use xlink:href="#m0b79a05da0" x="329.661818" y="353.259387" style="stroke: #000000"/>
    </g>
   </g>
   <g id="line2d_58">
    <g clip-path="url(#p862fcee537)">
     <use xlink:href="#m0b79a05da0" x="286.036364" y="367.81198" style="stroke: #000000"/>
    </g>
   </g>
   <g id="line2d_59">
    <g clip-path="url(#p862fcee537)">
     <use xlink:href="#m0b79a05da0" x="691.854545" y="476.956431" style="stroke: #000000"/>
     <use xlink:href="#m0b79a05da0" x="691.854545" y="467.254702" style="stroke: #000000"/>
     <use xlink:href="#m0b79a05da0" x="691.854545" y="452.702108" style="stroke: #000000"/>
     <use xlink:href="#m0b79a05da0" x="691.854545" y="443.000379" style="stroke: #000000"/>
     <use xlink:href="#m0b79a05da0" x="691.854545" y="433.29865" style="stroke: #000000"/>
     <use xlink:href="#m0b79a05da0" x="691.854545" y="423.596927" style="stroke: #000000"/>
     <use xlink:href="#m0b79a05da0" x="691.854545" y="413.895192" style="stroke: #000000"/>
     <use xlink:href="#m0b79a05da0" x="691.854545" y="399.342599" style="stroke: #000000"/>
     <use xlink:href="#m0b79a05da0" x="691.854545" y="384.790006" style="stroke: #000000"/>
     <use xlink:href="#m0b79a05da0" x="691.854545" y="375.088277" style="stroke: #000000"/>
     <use xlink:href="#m0b79a05da0" x="691.854545" y="365.386548" style="stroke: #000000"/>
     <use xlink:href="#m0b79a05da0" x="691.854545" y="355.684819" style="stroke: #000000"/>
     <use xlink:href="#m0b79a05da0" x="691.854545" y="345.98309" style="stroke: #000000"/>
     <use xlink:href="#m0b79a05da0" x="691.854545" y="336.281361" style="stroke: #000000"/>
     <use xlink:href="#m0b79a05da0" x="691.854545" y="326.579632" style="stroke: #000000"/>
     <use xlink:href="#m0b79a05da0" x="691.854545" y="307.176174" style="stroke: #000000"/>
     <use xlink:href="#m0b79a05da0" x="691.854545" y="292.623581" style="stroke: #000000"/>
     <use xlink:href="#m0b79a05da0" x="691.854545" y="282.921852" style="stroke: #000000"/>
     <use xlink:href="#m0b79a05da0" x="691.854545" y="273.220123" style="stroke: #000000"/>
     <use xlink:href="#m0b79a05da0" x="691.854545" y="248.9658" style="stroke: #000000"/>
     <use xlink:href="#m0b79a05da0" x="691.854545" y="239.264071" style="stroke: #000000"/>
     <use xlink:href="#m0b79a05da0" x="691.854545" y="229.562342" style="stroke: #000000"/>
     <use xlink:href="#m0b79a05da0" x="691.854545" y="219.860613" style="stroke: #000000"/>
     <use xlink:href="#m0b79a05da0" x="691.854545" y="210.158885" style="stroke: #000000"/>
     <use xlink:href="#m0b79a05da0" x="691.854545" y="200.457156" style="stroke: #000000"/>
     <use xlink:href="#m0b79a05da0" x="691.854545" y="190.755427" style="stroke: #000000"/>
     <use xlink:href="#m0b79a05da0" x="691.854545" y="181.053698" style="stroke: #000000"/>
    </g>
   </g>
   <g id="line2d_60">
    <g clip-path="url(#p862fcee537)">
     <use xlink:href="#m0b79a05da0" x="590.4" y="481.807295" style="stroke: #000000"/>
     <use xlink:href="#m0b79a05da0" x="590.4" y="472.105566" style="stroke: #000000"/>
     <use xlink:href="#m0b79a05da0" x="590.4" y="462.403837" style="stroke: #000000"/>
     <use xlink:href="#m0b79a05da0" x="590.4" y="452.702108" style="stroke: #000000"/>
     <use xlink:href="#m0b79a05da0" x="590.4" y="443.000379" style="stroke: #000000"/>
     <use xlink:href="#m0b79a05da0" x="590.4" y="428.447786" style="stroke: #000000"/>
     <use xlink:href="#m0b79a05da0" x="590.4" y="418.746057" style="stroke: #000000"/>
     <use xlink:href="#m0b79a05da0" x="590.4" y="404.193463" style="stroke: #000000"/>
     <use xlink:href="#m0b79a05da0" x="590.4" y="394.491735" style="stroke: #000000"/>
     <use xlink:href="#m0b79a05da0" x="590.4" y="384.790006" style="stroke: #000000"/>
     <use xlink:href="#m0b79a05da0" x="590.4" y="375.088277" style="stroke: #000000"/>
     <use xlink:href="#m0b79a05da0" x="590.4" y="365.386548" style="stroke: #000000"/>
     <use xlink:href="#m0b79a05da0" x="590.4" y="355.684819" style="stroke: #000000"/>
     <use xlink:href="#m0b79a05da0" x="590.4" y="336.281361" style="stroke: #000000"/>
     <use xlink:href="#m0b79a05da0" x="590.4" y="326.579632" style="stroke: #000000"/>
     <use xlink:href="#m0b79a05da0" x="590.4" y="316.877903" style="stroke: #000000"/>
     <use xlink:href="#m0b79a05da0" x="590.4" y="307.176174" style="stroke: #000000"/>
     <use xlink:href="#m0b79a05da0" x="590.4" y="297.474445" style="stroke: #000000"/>
     <use xlink:href="#m0b79a05da0" x="590.4" y="287.772716" style="stroke: #000000"/>
     <use xlink:href="#m0b79a05da0" x="590.4" y="278.070987" style="stroke: #000000"/>
     <use xlink:href="#m0b79a05da0" x="590.4" y="268.369258" style="stroke: #000000"/>
     <use xlink:href="#m0b79a05da0" x="590.4" y="258.667529" style="stroke: #000000"/>
     <use xlink:href="#m0b79a05da0" x="590.4" y="248.9658" style="stroke: #000000"/>
     <use xlink:href="#m0b79a05da0" x="590.4" y="239.264071" style="stroke: #000000"/>
     <use xlink:href="#m0b79a05da0" x="590.4" y="229.562342" style="stroke: #000000"/>
     <use xlink:href="#m0b79a05da0" x="590.4" y="219.860613" style="stroke: #000000"/>
    </g>
   </g>
   <g id="line2d_61">
    <g clip-path="url(#p862fcee537)">
     <use xlink:href="#m0b79a05da0" x="328.647273" y="358.110251" style="stroke: #000000"/>
    </g>
   </g>
   <g id="line2d_62">
    <g clip-path="url(#p862fcee537)">
     <use xlink:href="#m0b79a05da0" x="331.690909" y="358.110251" style="stroke: #000000"/>
    </g>
   </g>
   <g id="line2d_63">
    <g clip-path="url(#p862fcee537)">
     <use xlink:href="#m0b79a05da0" x="996.218182" y="409.044328" style="stroke: #000000"/>
     <use xlink:href="#m0b79a05da0" x="996.218182" y="375.088277" style="stroke: #000000"/>
     <use xlink:href="#m0b79a05da0" x="996.218182" y="147.097646" style="stroke: #000000"/>
     <use xlink:href="#m0b79a05da0" x="996.218182" y="88.887273" style="stroke: #000000"/>
    </g>
   </g>
   <g id="line2d_64">
    <g clip-path="url(#p862fcee537)">
     <use xlink:href="#m0b79a05da0" x="184.581818" y="389.64087" style="stroke: #000000"/>
    </g>
   </g>
   <g id="line2d_65">
    <g clip-path="url(#p862fcee537)">
     <use xlink:href="#m0b79a05da0" x="341.836364" y="382.364573" style="stroke: #000000"/>
     <use xlink:href="#m0b79a05da0" x="341.836364" y="331.430496" style="stroke: #000000"/>
    </g>
   </g>
   <g id="patch_3">
    <path d="M 144 504 
L 144 69.12 
" style="fill: none; stroke: #000000; stroke-width: 0.8; stroke-linejoin: miter; stroke-linecap: square"/>
   </g>
   <g id="patch_4">
    <path d="M 1036.8 504 
L 1036.8 69.12 
" style="fill: none; stroke: #000000; stroke-width: 0.8; stroke-linejoin: miter; stroke-linecap: square"/>
   </g>
   <g id="patch_5">
    <path d="M 144 504 
L 1036.8 504 
" style="fill: none; stroke: #000000; stroke-width: 0.8; stroke-linejoin: miter; stroke-linecap: square"/>
   </g>
   <g id="patch_6">
    <path d="M 144 69.12 
L 1036.8 69.12 
" style="fill: none; stroke: #000000; stroke-width: 0.8; stroke-linejoin: miter; stroke-linecap: square"/>
   </g>
  </g>
 </g>
 <defs>
  <clipPath id="p862fcee537">
   <rect x="144" y="69.12" width="892.8" height="434.88"/>
  </clipPath>
 </defs>
</svg>
